%TF.GenerationSoftware,KiCad,Pcbnew,9.0.6*%
%TF.CreationDate,2026-04-30T20:31:08+02:00*%
%TF.ProjectId,reaverPCB,72656176-6572-4504-9342-2e6b69636164,rev?*%
%TF.SameCoordinates,Original*%
%TF.FileFunction,Soldermask,Bot*%
%TF.FilePolarity,Negative*%
%FSLAX46Y46*%
G04 Gerber Fmt 4.6, Leading zero omitted, Abs format (unit mm)*
G04 Created by KiCad (PCBNEW 9.0.6) date 2026-04-30 20:31:08*
%MOMM*%
%LPD*%
G01*
G04 APERTURE LIST*
G04 Aperture macros list*
%AMRoundRect*
0 Rectangle with rounded corners*
0 $1 Rounding radius*
0 $2 $3 $4 $5 $6 $7 $8 $9 X,Y pos of 4 corners*
0 Add a 4 corners polygon primitive as box body*
4,1,4,$2,$3,$4,$5,$6,$7,$8,$9,$2,$3,0*
0 Add four circle primitives for the rounded corners*
1,1,$1+$1,$2,$3*
1,1,$1+$1,$4,$5*
1,1,$1+$1,$6,$7*
1,1,$1+$1,$8,$9*
0 Add four rect primitives between the rounded corners*
20,1,$1+$1,$2,$3,$4,$5,0*
20,1,$1+$1,$4,$5,$6,$7,0*
20,1,$1+$1,$6,$7,$8,$9,0*
20,1,$1+$1,$8,$9,$2,$3,0*%
%AMRotRect*
0 Rectangle, with rotation*
0 The origin of the aperture is its center*
0 $1 length*
0 $2 width*
0 $3 Rotation angle, in degrees counterclockwise*
0 Add horizontal line*
21,1,$1,$2,0,0,$3*%
G04 Aperture macros list end*
%ADD10C,1.905000*%
%ADD11RoundRect,0.190500X-0.873027X-0.126683X0.540001X-0.697583X0.873027X0.126683X-0.540001X0.697583X0*%
%ADD12C,1.524000*%
%ADD13C,1.700000*%
%ADD14RotRect,1.700000X1.700000X154.000000*%
%ADD15RotRect,1.700000X1.700000X181.000000*%
%ADD16C,1.600000*%
%ADD17C,2.000000*%
%ADD18RotRect,1.905000X1.905000X7.000000*%
%ADD19C,3.500000*%
%ADD20R,1.905000X2.000000*%
%ADD21O,1.905000X2.000000*%
%ADD22R,2.000000X1.905000*%
%ADD23O,2.000000X1.905000*%
%ADD24RotRect,1.700000X1.700000X113.000000*%
%ADD25RoundRect,0.249999X0.601041X1.041034X-1.041034X0.601041X-0.601041X-1.041034X1.041034X-0.601041X0*%
%ADD26C,2.200000*%
%ADD27RotRect,1.600000X0.850000X148.000000*%
G04 APERTURE END LIST*
D10*
%TO.C,U3*%
X119249999Y-84500000D03*
D11*
X120201498Y-82144951D03*
%TD*%
D12*
%TO.C,U4*%
X134637118Y-101544746D03*
X135710565Y-99242731D03*
X136784011Y-96940700D03*
X137857467Y-94638679D03*
X138930915Y-92336666D03*
X140004362Y-90034637D03*
X141077813Y-87732615D03*
X127265682Y-81291920D03*
X126192235Y-83593935D03*
X125118789Y-85895966D03*
X124045333Y-88197987D03*
X122971885Y-90500000D03*
X121898438Y-92802029D03*
X120824987Y-95104051D03*
%TD*%
D13*
%TO.C,XiaoBatteryPins*%
X128043021Y-88079589D03*
D14*
X126929565Y-90362527D03*
%TD*%
D15*
%TO.C,ReedSwitch1*%
X142750000Y-98500000D03*
D13*
X142705664Y-95960387D03*
%TD*%
D16*
%TO.C,R3*%
X135605265Y-78520297D03*
X142394734Y-81979694D03*
%TD*%
D17*
%TO.C,U2*%
X160111808Y-83078039D03*
X176828039Y-96138191D03*
X175000000Y-81250000D03*
D10*
X157508583Y-89775213D03*
D18*
X157818132Y-92296278D03*
%TD*%
D19*
%TO.C,Q2*%
X149750000Y-82750000D03*
D20*
X147210000Y-99410000D03*
D21*
X149750000Y-99410000D03*
X152290000Y-99410000D03*
%TD*%
D19*
%TO.C,Q1*%
X171830000Y-105200000D03*
D22*
X155170000Y-102660000D03*
D23*
X155170000Y-105200000D03*
X155170000Y-107740000D03*
%TD*%
D19*
%TO.C,*%
X140250000Y-102750000D03*
%TD*%
D24*
%TO.C,EHead1*%
X187589602Y-72715402D03*
D13*
X189927681Y-71722941D03*
%TD*%
D16*
%TO.C,R2*%
X152618840Y-102882980D03*
X145000000Y-102750000D03*
%TD*%
%TO.C,R4*%
X144500000Y-106500000D03*
X152120000Y-106500000D03*
%TD*%
%TO.C,10k*%
X178000000Y-107500000D03*
X177468453Y-99898562D03*
%TD*%
D25*
%TO.C,D3*%
X183906909Y-73685199D03*
D26*
X174093102Y-76314795D03*
%TD*%
D27*
%TO.C,D1*%
X206327364Y-59515915D03*
X205400000Y-61000000D03*
X202431830Y-59145281D03*
X203359194Y-57661196D03*
%TD*%
M02*
