M48
; DRILL file {KiCad 9.0.6} date 2026-04-30T20:31:34+0200
; FORMAT={-:-/ absolute / metric / decimal}
; #@! TF.CreationDate,2026-04-30T20:31:34+02:00
; #@! TF.GenerationSoftware,Kicad,Pcbnew,9.0.6
; #@! TF.FileFunction,Plated,1,2,PTH
FMAT,2
METRIC
; #@! TA.AperFunction,Plated,PTH,ViaDrill
T1C0.300
; #@! TA.AperFunction,Plated,PTH,ComponentDrill
T2C0.800
; #@! TA.AperFunction,Plated,PTH,ComponentDrill
T3C0.889
; #@! TA.AperFunction,Plated,PTH,ComponentDrill
T4C1.000
; #@! TA.AperFunction,Plated,PTH,ComponentDrill
T5C1.100
%
G90
G05
T1
X157.25Y-84.75
X168.75Y-86.75
X191.546Y-74.032
X201.0Y-61.0
X206.748Y-57.754
T2
X135.605Y-78.52
X142.395Y-81.98
X144.5Y-106.5
X145.0Y-102.75
X152.12Y-106.5
X152.619Y-102.883
X177.468Y-99.899
X178.0Y-107.5
T3
X120.825Y-95.104
X121.898Y-92.802
X122.972Y-90.5
X124.045Y-88.198
X125.119Y-85.896
X126.192Y-83.594
X127.266Y-81.292
X134.637Y-101.545
X135.711Y-99.243
X136.784Y-96.941
X137.857Y-94.639
X138.931Y-92.337
X140.004Y-90.035
X141.078Y-87.733
T4
X119.25Y-84.5
X120.201Y-82.145
X126.93Y-90.363
X128.043Y-88.08
X142.706Y-95.96
X142.75Y-98.5
X157.509Y-89.775
X157.818Y-92.296
X187.59Y-72.715
X189.928Y-71.723
T5
X147.21Y-99.41
X149.75Y-99.41
X152.29Y-99.41
X155.17Y-102.66
X155.17Y-105.2
X155.17Y-107.74
X174.093Y-76.315
X183.907Y-73.685
M30
