%TF.GenerationSoftware,KiCad,Pcbnew,9.0.6*%
%TF.CreationDate,2026-04-30T20:31:08+02:00*%
%TF.ProjectId,reaverPCB,72656176-6572-4504-9342-2e6b69636164,rev?*%
%TF.SameCoordinates,Original*%
%TF.FileFunction,Legend,Bot*%
%TF.FilePolarity,Positive*%
%FSLAX46Y46*%
G04 Gerber Fmt 4.6, Leading zero omitted, Abs format (unit mm)*
G04 Created by KiCad (PCBNEW 9.0.6) date 2026-04-30 20:31:08*
%MOMM*%
%LPD*%
G01*
G04 APERTURE LIST*
%ADD10C,0.150000*%
%ADD11C,0.120000*%
G04 APERTURE END LIST*
D10*
X206221793Y-57775305D02*
X206751712Y-56927256D01*
X206751712Y-56927256D02*
X206549796Y-56801085D01*
X206549796Y-56801085D02*
X206403412Y-56765766D01*
X206403412Y-56765766D02*
X206272177Y-56796064D01*
X206272177Y-56796064D02*
X206181325Y-56851596D01*
X206181325Y-56851596D02*
X206040005Y-56987895D01*
X206040005Y-56987895D02*
X205964302Y-57109044D01*
X205964302Y-57109044D02*
X205903749Y-57295812D01*
X205903749Y-57295812D02*
X205893663Y-57401812D01*
X205893663Y-57401812D02*
X205923961Y-57533047D01*
X205923961Y-57533047D02*
X206019877Y-57649133D01*
X206019877Y-57649133D02*
X206221793Y-57775305D01*
X204929529Y-56967809D02*
X205414128Y-57270620D01*
X205171829Y-57119214D02*
X205701748Y-56271166D01*
X205701748Y-56271166D02*
X205706812Y-56442784D01*
X205706812Y-56442784D02*
X205737110Y-56574019D01*
X205737110Y-56574019D02*
X205792642Y-56664871D01*
X207171201Y-60470417D02*
X207558881Y-60712665D01*
X207365041Y-60591541D02*
X207788976Y-59913103D01*
X207788976Y-59913103D02*
X207793027Y-60050397D01*
X207793027Y-60050397D02*
X207817266Y-60155385D01*
X207817266Y-60155385D02*
X207861692Y-60228067D01*
D11*
%TO.C,D1*%
X201263173Y-59034093D02*
X201454055Y-59860873D01*
X201263173Y-59034093D02*
X203064901Y-56150731D01*
X205694293Y-62510465D02*
X201454055Y-59860873D01*
X207813971Y-59118276D02*
X203064901Y-56150731D01*
X207813971Y-59118276D02*
X205694293Y-62510465D01*
%TD*%
M02*
