%TF.GenerationSoftware,KiCad,Pcbnew,9.0.6*%
%TF.CreationDate,2026-04-30T20:31:08+02:00*%
%TF.ProjectId,reaverPCB,72656176-6572-4504-9342-2e6b69636164,rev?*%
%TF.SameCoordinates,Original*%
%TF.FileFunction,Copper,L2,Bot*%
%TF.FilePolarity,Positive*%
%FSLAX46Y46*%
G04 Gerber Fmt 4.6, Leading zero omitted, Abs format (unit mm)*
G04 Created by KiCad (PCBNEW 9.0.6) date 2026-04-30 20:31:08*
%MOMM*%
%LPD*%
G01*
G04 APERTURE LIST*
G04 Aperture macros list*
%AMRoundRect*
0 Rectangle with rounded corners*
0 $1 Rounding radius*
0 $2 $3 $4 $5 $6 $7 $8 $9 X,Y pos of 4 corners*
0 Add a 4 corners polygon primitive as box body*
4,1,4,$2,$3,$4,$5,$6,$7,$8,$9,$2,$3,0*
0 Add four circle primitives for the rounded corners*
1,1,$1+$1,$2,$3*
1,1,$1+$1,$4,$5*
1,1,$1+$1,$6,$7*
1,1,$1+$1,$8,$9*
0 Add four rect primitives between the rounded corners*
20,1,$1+$1,$2,$3,$4,$5,0*
20,1,$1+$1,$4,$5,$6,$7,0*
20,1,$1+$1,$6,$7,$8,$9,0*
20,1,$1+$1,$8,$9,$2,$3,0*%
%AMRotRect*
0 Rectangle, with rotation*
0 The origin of the aperture is its center*
0 $1 length*
0 $2 width*
0 $3 Rotation angle, in degrees counterclockwise*
0 Add horizontal line*
21,1,$1,$2,0,0,$3*%
G04 Aperture macros list end*
%TA.AperFunction,ComponentPad*%
%ADD10C,1.905000*%
%TD*%
%TA.AperFunction,ComponentPad*%
%ADD11RoundRect,0.190500X-0.873027X-0.126683X0.540001X-0.697583X0.873027X0.126683X-0.540001X0.697583X0*%
%TD*%
%TA.AperFunction,ComponentPad*%
%ADD12C,1.524000*%
%TD*%
%TA.AperFunction,ComponentPad*%
%ADD13C,1.700000*%
%TD*%
%TA.AperFunction,ComponentPad*%
%ADD14RotRect,1.700000X1.700000X154.000000*%
%TD*%
%TA.AperFunction,ComponentPad*%
%ADD15RotRect,1.700000X1.700000X181.000000*%
%TD*%
%TA.AperFunction,ComponentPad*%
%ADD16C,1.600000*%
%TD*%
%TA.AperFunction,ComponentPad*%
%ADD17RotRect,1.905000X1.905000X7.000000*%
%TD*%
%TA.AperFunction,ComponentPad*%
%ADD18R,1.905000X2.000000*%
%TD*%
%TA.AperFunction,ComponentPad*%
%ADD19O,1.905000X2.000000*%
%TD*%
%TA.AperFunction,ComponentPad*%
%ADD20R,2.000000X1.905000*%
%TD*%
%TA.AperFunction,ComponentPad*%
%ADD21O,2.000000X1.905000*%
%TD*%
%TA.AperFunction,ComponentPad*%
%ADD22RotRect,1.700000X1.700000X113.000000*%
%TD*%
%TA.AperFunction,ComponentPad*%
%ADD23RoundRect,0.249999X0.601041X1.041034X-1.041034X0.601041X-0.601041X-1.041034X1.041034X-0.601041X0*%
%TD*%
%TA.AperFunction,ComponentPad*%
%ADD24C,2.200000*%
%TD*%
%TA.AperFunction,SMDPad,CuDef*%
%ADD25RotRect,1.600000X0.850000X148.000000*%
%TD*%
%TA.AperFunction,ViaPad*%
%ADD26C,0.600000*%
%TD*%
%TA.AperFunction,Conductor*%
%ADD27C,0.200000*%
%TD*%
%TA.AperFunction,Conductor*%
%ADD28C,0.800000*%
%TD*%
%TA.AperFunction,Conductor*%
%ADD29C,0.600000*%
%TD*%
%TA.AperFunction,Conductor*%
%ADD30C,2.000000*%
%TD*%
%TA.AperFunction,Conductor*%
%ADD31C,1.200000*%
%TD*%
G04 APERTURE END LIST*
D10*
%TO.P,U3,2,VCC*%
%TO.N,VBATT*%
X119249999Y-84500000D03*
D11*
%TO.P,U3,1,GND*%
%TO.N,GND*%
X120201498Y-82144951D03*
%TD*%
D12*
%TO.P,U4,1,P0.02_A0_D0*%
%TO.N,FAN_PIN*%
X134637118Y-101544746D03*
%TO.P,U4,2,P0.03_A1_D1*%
%TO.N,EHEAD_PIN*%
X135710565Y-99242731D03*
%TO.P,U4,3,P0.28_A2_D2*%
%TO.N,LED_PIN*%
X136784011Y-96940700D03*
%TO.P,U4,4,P0.29_A3_D3*%
%TO.N,PinReed*%
X137857467Y-94638679D03*
%TO.P,U4,5,P0.04_A4_D4_SDA*%
%TO.N,unconnected-(U4-P0.04_A4_D4_SDA-Pad5)*%
X138930915Y-92336666D03*
%TO.P,U4,6,P0.05_A5_D5_SCL*%
%TO.N,unconnected-(U4-P0.05_A5_D5_SCL-Pad6)*%
X140004362Y-90034637D03*
%TO.P,U4,7,P1.11_D6_TX*%
%TO.N,unconnected-(U4-P1.11_D6_TX-Pad7)*%
X141077813Y-87732615D03*
%TO.P,U4,8,P1.12_D7_RX*%
%TO.N,unconnected-(U4-P1.12_D7_RX-Pad8)*%
X127265682Y-81291920D03*
%TO.P,U4,9,P1.13_D8_SCK*%
%TO.N,unconnected-(U4-P1.13_D8_SCK-Pad9)*%
X126192235Y-83593935D03*
%TO.P,U4,10,P1.14_D9_MISO*%
%TO.N,unconnected-(U4-P1.14_D9_MISO-Pad10)*%
X125118789Y-85895966D03*
%TO.P,U4,11,P1.15_D10_MOSI*%
%TO.N,unconnected-(U4-P1.15_D10_MOSI-Pad11)*%
X124045333Y-88197987D03*
%TO.P,U4,12,3V3*%
%TO.N,unconnected-(U4-3V3-Pad12)*%
X122971885Y-90500000D03*
%TO.P,U4,13,GND*%
%TO.N,unconnected-(U4-GND-Pad13)*%
X121898438Y-92802029D03*
%TO.P,U4,14,VBUS*%
%TO.N,unconnected-(U4-VBUS-Pad14)*%
X120824987Y-95104051D03*
%TD*%
D13*
%TO.P,XiaoBatteryPins,2,Pin_2*%
%TO.N,VBATT*%
X128043021Y-88079589D03*
D14*
%TO.P,XiaoBatteryPins,1,Pin_1*%
%TO.N,GND*%
X126929565Y-90362527D03*
%TD*%
D15*
%TO.P,ReedSwitch1,1,Pin_1*%
%TO.N,GND*%
X142750000Y-98500000D03*
D13*
%TO.P,ReedSwitch1,2,Pin_2*%
%TO.N,PinReed*%
X142705664Y-95960387D03*
%TD*%
D16*
%TO.P,R3,1,1*%
%TO.N,EHEAD_PIN*%
X135605265Y-78520297D03*
%TO.P,R3,2,2*%
%TO.N,Net-(Q2-G)*%
X142394734Y-81979694D03*
%TD*%
D10*
%TO.P,U2,1,VCC*%
%TO.N,VBATT*%
X157508583Y-89775213D03*
D17*
%TO.P,U2,2,GND*%
%TO.N,Net-(D3-K)*%
X157818132Y-92296278D03*
%TD*%
D18*
%TO.P,Q2,1,G*%
%TO.N,Net-(Q2-G)*%
X147210000Y-99410000D03*
D19*
%TO.P,Q2,2,D*%
%TO.N,Net-(EHead1-Pin_2)*%
X149750000Y-99410000D03*
%TO.P,Q2,3,S*%
%TO.N,GND*%
X152290000Y-99410000D03*
%TD*%
D20*
%TO.P,Q1,1,G*%
%TO.N,Net-(Q1-G)*%
X155170000Y-102660000D03*
D21*
%TO.P,Q1,2,D*%
%TO.N,Net-(D3-K)*%
X155170000Y-105200000D03*
%TO.P,Q1,3,S*%
%TO.N,GND*%
X155170000Y-107740000D03*
%TD*%
D22*
%TO.P,EHead1,1,Pin_1*%
%TO.N,VBATT*%
X187589602Y-72715402D03*
D13*
%TO.P,EHead1,2,Pin_2*%
%TO.N,Net-(EHead1-Pin_2)*%
X189927681Y-71722941D03*
%TD*%
D16*
%TO.P,R2,1,1*%
%TO.N,GND*%
X152618840Y-102882980D03*
%TO.P,R2,2,2*%
%TO.N,Net-(Q1-G)*%
X145000000Y-102750000D03*
%TD*%
%TO.P,R4,1,1*%
%TO.N,FAN_PIN*%
X144500000Y-106500000D03*
%TO.P,R4,2,2*%
%TO.N,Net-(Q1-G)*%
X152120000Y-106500000D03*
%TD*%
%TO.P,10k,1,1*%
%TO.N,GND*%
X178000000Y-107500000D03*
%TO.P,10k,2,2*%
%TO.N,Net-(Q2-G)*%
X177468453Y-99898562D03*
%TD*%
D23*
%TO.P,D3,1,K*%
%TO.N,Net-(D3-K)*%
X183906909Y-73685199D03*
D24*
%TO.P,D3,2,A*%
%TO.N,VBATT*%
X174093102Y-76314795D03*
%TD*%
D25*
%TO.P,D1,1,DOUT*%
%TO.N,unconnected-(D1-DOUT-Pad1)*%
X206327364Y-59515915D03*
%TO.P,D1,2,VSS*%
%TO.N,GND*%
X205400000Y-61000000D03*
%TO.P,D1,3,DIN*%
%TO.N,LED_PIN*%
X202431830Y-59145281D03*
%TO.P,D1,4,VDD*%
%TO.N,VBATT*%
X203359194Y-57661196D03*
%TD*%
D26*
%TO.N,VBATT*%
X206748132Y-57753750D03*
%TO.N,GND*%
X157250000Y-84750000D03*
X168750000Y-86750000D03*
X201000000Y-61000000D03*
%TO.N,LED_PIN*%
X191546129Y-74031872D03*
%TD*%
D27*
%TO.N,EHEAD_PIN*%
X135605265Y-99137431D02*
X135710565Y-99242731D01*
X135605265Y-78520297D02*
X135605265Y-99137431D01*
D28*
%TO.N,VBATT*%
X203359194Y-57661196D02*
X203451748Y-57753750D01*
X203451748Y-57753750D02*
X206748132Y-57753750D01*
D29*
%TO.N,GND*%
X205400000Y-61000000D02*
X201000000Y-61000000D01*
D27*
%TO.N,LED_PIN*%
X191500000Y-73980744D02*
X191546129Y-74026873D01*
X191500000Y-73980744D02*
X191490897Y-73987236D01*
X196929303Y-64807938D02*
X196929303Y-65217171D01*
X200518683Y-59145282D02*
X200283785Y-59483249D01*
X192250000Y-73230744D02*
X191500000Y-73980744D01*
X196929303Y-65217171D02*
X196389104Y-65757370D01*
X196392357Y-65742015D02*
X192250000Y-69884372D01*
X192250000Y-69884372D02*
X192250000Y-73230744D01*
X196389104Y-65757370D02*
X196392357Y-65742015D01*
X202431830Y-59145282D02*
X200518683Y-59145282D01*
X200283785Y-59483249D02*
X196929303Y-64807938D01*
X191546129Y-74026873D02*
X191546129Y-74031872D01*
D30*
%TO.N,Net-(EHead1-Pin_2)*%
X151397991Y-97209000D02*
X149750000Y-98856991D01*
X149750000Y-98856991D02*
X149750000Y-99410000D01*
X188136487Y-75273957D02*
X186016093Y-75273957D01*
X164081050Y-97209000D02*
X151397991Y-97209000D01*
X189927682Y-73996604D02*
X188136487Y-75273957D01*
X186016093Y-75273957D02*
X164081050Y-97209000D01*
X189927682Y-71722941D02*
X189927682Y-73996604D01*
D31*
%TO.N,Net-(D3-K)*%
X170715410Y-79399000D02*
X157818132Y-92296278D01*
X178193108Y-79399000D02*
X170715410Y-79399000D01*
X183906909Y-73685199D02*
X178193108Y-79399000D01*
D27*
%TO.N,Net-(Q2-G)*%
X177001424Y-99606242D02*
X175857666Y-100750000D01*
X144250000Y-84750000D02*
X147210000Y-87710000D01*
X142394734Y-81979694D02*
X144250000Y-83834960D01*
X148550000Y-100750000D02*
X147210000Y-99410000D01*
X175857666Y-100750000D02*
X148550000Y-100750000D01*
X144250000Y-83834960D02*
X144250000Y-84750000D01*
X147210000Y-87710000D02*
X147210000Y-99410000D01*
%TD*%
%TA.AperFunction,Conductor*%
%TO.N,GND*%
G36*
X205175608Y-58673935D02*
G01*
X205221363Y-58726739D01*
X205231307Y-58795897D01*
X205213727Y-58843960D01*
X204973897Y-59227768D01*
X204947740Y-59281721D01*
X204947740Y-59281722D01*
X204918934Y-59422732D01*
X204931023Y-59566148D01*
X204932655Y-59573217D01*
X204928553Y-59642966D01*
X204887394Y-59699425D01*
X204839731Y-59721928D01*
X204833141Y-59723449D01*
X204699082Y-59775398D01*
X204699080Y-59775399D01*
X204585084Y-59863015D01*
X204548098Y-59910124D01*
X204548095Y-59910128D01*
X204430017Y-60099092D01*
X205427321Y-60722277D01*
X205473742Y-60774496D01*
X205484563Y-60843523D01*
X205466769Y-60893144D01*
X205399999Y-60999998D01*
X205399999Y-60999999D01*
X205506853Y-61066769D01*
X205553274Y-61118988D01*
X205564095Y-61188015D01*
X205546301Y-61237637D01*
X205121836Y-61916924D01*
X205628817Y-62233721D01*
X205682715Y-62259849D01*
X205682718Y-62259851D01*
X205781054Y-62279939D01*
X205842797Y-62312643D01*
X205877058Y-62373536D01*
X205872958Y-62443286D01*
X205856703Y-62474110D01*
X203985639Y-65060536D01*
X203958488Y-65087860D01*
X197396744Y-69898459D01*
X197390496Y-69903038D01*
X197360225Y-69919890D01*
X197337592Y-69941823D01*
X197330720Y-69946862D01*
X197330721Y-69946862D01*
X197312161Y-69960469D01*
X197295319Y-69981451D01*
X197284918Y-69992871D01*
X189702993Y-77340862D01*
X189702992Y-77340863D01*
X189695068Y-77348543D01*
X189692806Y-77350735D01*
X189685423Y-77355180D01*
X189645608Y-77396475D01*
X189644073Y-77397963D01*
X189604362Y-77436449D01*
X189599319Y-77442814D01*
X189598932Y-77442507D01*
X189590091Y-77454057D01*
X178940798Y-88499603D01*
X178940797Y-88499604D01*
X178932166Y-88508555D01*
X178928200Y-88511044D01*
X178886554Y-88555861D01*
X178885704Y-88556744D01*
X178885699Y-88556751D01*
X178843952Y-88600053D01*
X178842110Y-88602547D01*
X178841859Y-88602849D01*
X178841853Y-88602857D01*
X178841854Y-88602858D01*
X178840299Y-88605047D01*
X178840297Y-88605048D01*
X178840293Y-88605055D01*
X178838493Y-88607587D01*
X178810350Y-88660743D01*
X178809267Y-88662745D01*
X178780155Y-88715368D01*
X178779024Y-88718244D01*
X178779025Y-88718245D01*
X178778050Y-88720722D01*
X178778049Y-88720728D01*
X178778026Y-88720784D01*
X178777914Y-88721149D01*
X178776834Y-88724051D01*
X178763419Y-88782639D01*
X178762889Y-88784861D01*
X178748379Y-88843259D01*
X178748030Y-88846347D01*
X178748027Y-88846375D01*
X178747739Y-88848911D01*
X178747734Y-88848963D01*
X178747727Y-88849024D01*
X178747712Y-88849421D01*
X178747420Y-88852510D01*
X178749626Y-88912629D01*
X178749667Y-88913760D01*
X178750787Y-88975021D01*
X178752080Y-88979519D01*
X178752536Y-88991941D01*
X178752537Y-88991942D01*
X179292094Y-103689302D01*
X179290949Y-103704447D01*
X179291299Y-103704467D01*
X179290837Y-103712583D01*
X179294848Y-103766659D01*
X179295102Y-103771231D01*
X179297094Y-103825477D01*
X179297094Y-103825480D01*
X179297095Y-103825482D01*
X179298450Y-103833494D01*
X179298104Y-103833552D01*
X179300916Y-103848478D01*
X179614759Y-108079553D01*
X179600088Y-108147865D01*
X179550813Y-108197401D01*
X179513950Y-108210602D01*
X179300699Y-108250586D01*
X179231181Y-108243593D01*
X179176478Y-108200126D01*
X179153960Y-108133984D01*
X179167364Y-108072414D01*
X179204754Y-107999033D01*
X179267990Y-107804417D01*
X179300000Y-107602317D01*
X179300000Y-107397682D01*
X179267990Y-107195582D01*
X179204755Y-107000968D01*
X179111859Y-106818650D01*
X179026121Y-106700643D01*
X178394588Y-107427141D01*
X178372741Y-107345606D01*
X178320080Y-107254394D01*
X178245606Y-107179920D01*
X178154394Y-107127259D01*
X178052661Y-107100000D01*
X178016459Y-107100000D01*
X178649414Y-106371869D01*
X178499031Y-106295244D01*
X178304417Y-106232009D01*
X178102317Y-106200000D01*
X177897683Y-106200000D01*
X177695582Y-106232009D01*
X177500968Y-106295244D01*
X177318652Y-106388139D01*
X177200642Y-106473877D01*
X177927141Y-107105411D01*
X177845606Y-107127259D01*
X177754394Y-107179920D01*
X177679920Y-107254394D01*
X177627259Y-107345606D01*
X177600000Y-107447339D01*
X177600000Y-107483538D01*
X176871869Y-106850584D01*
X176871868Y-106850584D01*
X176795246Y-107000965D01*
X176795243Y-107000972D01*
X176732009Y-107195582D01*
X176700000Y-107397682D01*
X176700000Y-107602317D01*
X176732009Y-107804417D01*
X176795244Y-107999031D01*
X176888140Y-108181349D01*
X176973877Y-108299355D01*
X177605411Y-107572857D01*
X177627259Y-107654394D01*
X177679920Y-107745606D01*
X177754394Y-107820080D01*
X177845606Y-107872741D01*
X177947339Y-107900000D01*
X177983539Y-107900000D01*
X177391252Y-108581346D01*
X177332414Y-108619026D01*
X177320520Y-108621870D01*
X177068291Y-108669164D01*
X177068290Y-108669164D01*
X177056615Y-108671352D01*
X177052450Y-108671103D01*
X176991965Y-108683473D01*
X176990972Y-108683660D01*
X176990908Y-108683673D01*
X176931186Y-108694871D01*
X176929496Y-108695425D01*
X176915799Y-108699053D01*
X168623825Y-110395136D01*
X168595651Y-110397606D01*
X161661489Y-110211586D01*
X161660363Y-110211551D01*
X154527444Y-109955329D01*
X154503977Y-109952225D01*
X147762737Y-108394485D01*
X147760726Y-108394003D01*
X146471174Y-108073271D01*
X145296054Y-107781000D01*
X145235748Y-107745717D01*
X145204090Y-107683430D01*
X145211133Y-107613916D01*
X145253097Y-107560348D01*
X145347219Y-107491966D01*
X145491966Y-107347219D01*
X145491968Y-107347215D01*
X145491971Y-107347213D01*
X145578959Y-107227482D01*
X145612287Y-107181610D01*
X145705220Y-106999219D01*
X145768477Y-106804534D01*
X145800500Y-106602352D01*
X145800500Y-106397648D01*
X150819500Y-106397648D01*
X150819500Y-106602351D01*
X150851522Y-106804534D01*
X150914781Y-106999223D01*
X150978691Y-107124653D01*
X150999896Y-107166269D01*
X151007715Y-107181613D01*
X151128028Y-107347213D01*
X151272786Y-107491971D01*
X151424667Y-107602317D01*
X151438390Y-107612287D01*
X151521030Y-107654394D01*
X151620776Y-107705218D01*
X151620778Y-107705218D01*
X151620781Y-107705220D01*
X151725137Y-107739127D01*
X151815465Y-107768477D01*
X151894532Y-107781000D01*
X152017648Y-107800500D01*
X152017649Y-107800500D01*
X152222351Y-107800500D01*
X152222352Y-107800500D01*
X152424534Y-107768477D01*
X152619219Y-107705220D01*
X152801610Y-107612287D01*
X152918024Y-107527708D01*
X152967213Y-107491971D01*
X152967215Y-107491968D01*
X152967219Y-107491966D01*
X153111966Y-107347219D01*
X153111968Y-107347215D01*
X153111971Y-107347213D01*
X153198959Y-107227482D01*
X153232287Y-107181610D01*
X153325220Y-106999219D01*
X153388477Y-106804534D01*
X153420500Y-106602352D01*
X153420500Y-106397648D01*
X153416417Y-106371869D01*
X153388477Y-106195465D01*
X153353136Y-106086697D01*
X153325220Y-106000781D01*
X153325218Y-106000778D01*
X153325218Y-106000776D01*
X153291503Y-105934607D01*
X153232287Y-105818390D01*
X153188233Y-105757754D01*
X153111971Y-105652786D01*
X152967213Y-105508028D01*
X152801613Y-105387715D01*
X152801612Y-105387714D01*
X152801610Y-105387713D01*
X152744653Y-105358691D01*
X152619223Y-105294781D01*
X152424534Y-105231522D01*
X152249995Y-105203878D01*
X152222352Y-105199500D01*
X152017648Y-105199500D01*
X151993329Y-105203351D01*
X151815465Y-105231522D01*
X151620776Y-105294781D01*
X151438386Y-105387715D01*
X151272786Y-105508028D01*
X151128028Y-105652786D01*
X151007715Y-105818386D01*
X150914781Y-106000776D01*
X150851522Y-106195465D01*
X150819500Y-106397648D01*
X145800500Y-106397648D01*
X145796417Y-106371869D01*
X145768477Y-106195465D01*
X145733136Y-106086697D01*
X145705220Y-106000781D01*
X145705218Y-106000778D01*
X145705218Y-106000776D01*
X145671503Y-105934607D01*
X145612287Y-105818390D01*
X145568233Y-105757754D01*
X145491971Y-105652786D01*
X145347213Y-105508028D01*
X145181613Y-105387715D01*
X145181612Y-105387714D01*
X145181610Y-105387713D01*
X145124653Y-105358691D01*
X144999223Y-105294781D01*
X144804534Y-105231522D01*
X144629995Y-105203878D01*
X144602352Y-105199500D01*
X144397648Y-105199500D01*
X144373329Y-105203351D01*
X144195465Y-105231522D01*
X144000776Y-105294781D01*
X143818386Y-105387715D01*
X143652786Y-105508028D01*
X143508028Y-105652786D01*
X143387715Y-105818386D01*
X143294781Y-106000776D01*
X143231522Y-106195465D01*
X143199500Y-106397648D01*
X143199500Y-106602351D01*
X143231522Y-106804534D01*
X143294781Y-106999223D01*
X143337070Y-107082218D01*
X143349966Y-107150887D01*
X143323690Y-107215628D01*
X143266583Y-107255885D01*
X143196778Y-107258877D01*
X143196656Y-107258847D01*
X135577050Y-105363728D01*
X135568357Y-105361226D01*
X124832069Y-101842138D01*
X124818980Y-101837009D01*
X117066835Y-98280142D01*
X117014112Y-98234294D01*
X116994547Y-98167995D01*
X116980427Y-95004690D01*
X119562487Y-95004690D01*
X119562487Y-95203411D01*
X119593574Y-95399688D01*
X119654980Y-95588680D01*
X119654981Y-95588683D01*
X119736347Y-95748371D01*
X119745200Y-95765745D01*
X119862006Y-95926515D01*
X120002523Y-96067032D01*
X120163293Y-96183838D01*
X120250136Y-96228086D01*
X120340354Y-96274056D01*
X120340357Y-96274057D01*
X120434853Y-96304760D01*
X120529351Y-96335464D01*
X120725626Y-96366551D01*
X120725627Y-96366551D01*
X120924347Y-96366551D01*
X120924348Y-96366551D01*
X121120623Y-96335464D01*
X121309619Y-96274056D01*
X121486681Y-96183838D01*
X121647451Y-96067032D01*
X121787968Y-95926515D01*
X121904774Y-95765745D01*
X121994992Y-95588683D01*
X122056400Y-95399687D01*
X122087487Y-95203412D01*
X122087487Y-95004690D01*
X122056400Y-94808415D01*
X122002700Y-94643141D01*
X121994993Y-94619421D01*
X121994992Y-94619418D01*
X121904773Y-94442356D01*
X121832618Y-94343043D01*
X121787968Y-94281587D01*
X121782591Y-94276210D01*
X121749106Y-94214887D01*
X121754090Y-94145195D01*
X121795962Y-94089262D01*
X121861426Y-94064845D01*
X121870272Y-94064529D01*
X121997798Y-94064529D01*
X121997799Y-94064529D01*
X122194074Y-94033442D01*
X122383070Y-93972034D01*
X122560132Y-93881816D01*
X122720902Y-93765010D01*
X122861419Y-93624493D01*
X122978225Y-93463723D01*
X123068443Y-93286661D01*
X123129851Y-93097665D01*
X123160938Y-92901390D01*
X123160938Y-92702668D01*
X123129851Y-92506393D01*
X123085433Y-92369688D01*
X123068444Y-92317399D01*
X123068443Y-92317396D01*
X122978224Y-92140334D01*
X122861419Y-91979565D01*
X122856035Y-91974181D01*
X122822550Y-91912858D01*
X122827534Y-91843166D01*
X122869406Y-91787233D01*
X122934870Y-91762816D01*
X122943716Y-91762500D01*
X123071245Y-91762500D01*
X123071246Y-91762500D01*
X123267521Y-91731413D01*
X123456517Y-91670005D01*
X123633579Y-91579787D01*
X123794349Y-91462981D01*
X123934866Y-91322464D01*
X124051672Y-91161694D01*
X124141890Y-90984632D01*
X124203298Y-90795636D01*
X124206230Y-90777121D01*
X125288367Y-90777121D01*
X125288367Y-90777123D01*
X125315352Y-90918340D01*
X125381031Y-91046242D01*
X125381032Y-91046243D01*
X125480087Y-91150458D01*
X125480091Y-91150462D01*
X125530795Y-91182313D01*
X125530797Y-91182315D01*
X126113065Y-91466305D01*
X126514401Y-90643442D01*
X126529466Y-90669534D01*
X126622558Y-90762626D01*
X126736572Y-90828452D01*
X126863739Y-90862527D01*
X126963847Y-90862527D01*
X126562461Y-91685490D01*
X126562462Y-91685491D01*
X127144714Y-91969475D01*
X127144740Y-91969486D01*
X127201051Y-91989830D01*
X127201049Y-91989830D01*
X127344159Y-92003724D01*
X127344161Y-92003724D01*
X127485378Y-91976739D01*
X127613280Y-91911060D01*
X127613281Y-91911059D01*
X127717496Y-91812004D01*
X127717500Y-91812000D01*
X127749351Y-91761296D01*
X127749353Y-91761294D01*
X128033343Y-91179025D01*
X127210482Y-90777688D01*
X127236572Y-90762626D01*
X127329664Y-90669534D01*
X127395490Y-90555520D01*
X127429565Y-90428353D01*
X127429565Y-90328242D01*
X128252528Y-90729628D01*
X128536513Y-90147377D01*
X128536524Y-90147351D01*
X128556868Y-90091041D01*
X128570762Y-89947932D01*
X128570762Y-89947930D01*
X128543777Y-89806713D01*
X128478098Y-89678811D01*
X128478097Y-89678810D01*
X128380799Y-89576443D01*
X128348881Y-89514290D01*
X128355632Y-89444747D01*
X128398910Y-89389894D01*
X128432354Y-89373086D01*
X128561433Y-89331146D01*
X128750837Y-89234640D01*
X128873566Y-89145473D01*
X128922807Y-89109698D01*
X128922809Y-89109695D01*
X128922813Y-89109693D01*
X129073125Y-88959381D01*
X129073127Y-88959377D01*
X129073130Y-88959375D01*
X129198069Y-88787409D01*
X129198068Y-88787409D01*
X129198072Y-88787405D01*
X129294578Y-88598001D01*
X129360267Y-88395832D01*
X129393521Y-88185876D01*
X129393521Y-87973302D01*
X129360267Y-87763346D01*
X129294578Y-87561177D01*
X129198072Y-87371773D01*
X129198070Y-87371770D01*
X129198069Y-87371768D01*
X129073130Y-87199802D01*
X128922807Y-87049479D01*
X128750841Y-86924540D01*
X128561435Y-86828033D01*
X128561434Y-86828032D01*
X128561433Y-86828032D01*
X128359264Y-86762343D01*
X128359262Y-86762342D01*
X128359261Y-86762342D01*
X128197978Y-86736797D01*
X128149308Y-86729089D01*
X127936734Y-86729089D01*
X127888063Y-86736797D01*
X127726781Y-86762342D01*
X127524606Y-86828033D01*
X127335200Y-86924540D01*
X127163234Y-87049479D01*
X127012911Y-87199802D01*
X126887972Y-87371768D01*
X126791465Y-87561174D01*
X126725774Y-87763349D01*
X126692521Y-87973302D01*
X126692521Y-88185875D01*
X126725774Y-88395829D01*
X126783352Y-88573035D01*
X126785347Y-88642876D01*
X126749267Y-88702709D01*
X126686566Y-88733537D01*
X126653438Y-88734773D01*
X126514970Y-88721329D01*
X126514968Y-88721329D01*
X126373751Y-88748314D01*
X126245849Y-88813993D01*
X126245848Y-88813994D01*
X126141633Y-88913049D01*
X126141629Y-88913053D01*
X126109778Y-88963757D01*
X126109768Y-88963774D01*
X125825784Y-89546026D01*
X126648649Y-89947363D01*
X126622558Y-89962428D01*
X126529466Y-90055520D01*
X126463640Y-90169534D01*
X126429565Y-90296701D01*
X126429565Y-90396810D01*
X125606600Y-89995423D01*
X125322610Y-90577691D01*
X125322605Y-90577702D01*
X125302261Y-90634012D01*
X125288367Y-90777121D01*
X124206230Y-90777121D01*
X124234385Y-90599361D01*
X124234385Y-90400639D01*
X124203298Y-90204364D01*
X124172594Y-90109866D01*
X124141891Y-90015370D01*
X124141890Y-90015367D01*
X124051671Y-89838305D01*
X124028718Y-89806713D01*
X123934866Y-89677536D01*
X123929498Y-89672168D01*
X123896013Y-89610845D01*
X123900997Y-89541153D01*
X123942869Y-89485220D01*
X124008333Y-89460803D01*
X124017179Y-89460487D01*
X124144693Y-89460487D01*
X124144694Y-89460487D01*
X124340969Y-89429400D01*
X124361279Y-89422800D01*
X124370202Y-89419902D01*
X124529962Y-89367993D01*
X124529965Y-89367992D01*
X124707027Y-89277774D01*
X124867797Y-89160968D01*
X125008314Y-89020451D01*
X125125120Y-88859681D01*
X125215338Y-88682619D01*
X125276746Y-88493623D01*
X125307833Y-88297348D01*
X125307833Y-88098626D01*
X125276746Y-87902351D01*
X125215338Y-87713355D01*
X125215338Y-87713354D01*
X125137799Y-87561177D01*
X125125120Y-87536293D01*
X125008314Y-87375523D01*
X125002938Y-87370147D01*
X124969453Y-87308824D01*
X124974437Y-87239132D01*
X125016309Y-87183199D01*
X125081773Y-87158782D01*
X125090619Y-87158466D01*
X125218149Y-87158466D01*
X125218150Y-87158466D01*
X125414425Y-87127379D01*
X125603421Y-87065971D01*
X125780483Y-86975753D01*
X125941253Y-86858947D01*
X126081770Y-86718430D01*
X126198576Y-86557660D01*
X126288794Y-86380598D01*
X126350202Y-86191602D01*
X126381289Y-85995327D01*
X126381289Y-85796605D01*
X126350202Y-85600330D01*
X126300242Y-85446567D01*
X126288795Y-85411336D01*
X126288794Y-85411333D01*
X126242824Y-85321115D01*
X126198576Y-85234272D01*
X126081770Y-85073502D01*
X126076384Y-85068116D01*
X126042899Y-85006793D01*
X126047883Y-84937101D01*
X126089755Y-84881168D01*
X126155219Y-84856751D01*
X126164065Y-84856435D01*
X126291595Y-84856435D01*
X126291596Y-84856435D01*
X126487871Y-84825348D01*
X126676867Y-84763940D01*
X126853929Y-84673722D01*
X127014699Y-84556916D01*
X127155216Y-84416399D01*
X127272022Y-84255629D01*
X127362240Y-84078567D01*
X127423648Y-83889571D01*
X127454735Y-83693296D01*
X127454735Y-83494574D01*
X127423648Y-83298299D01*
X127362240Y-83109303D01*
X127362240Y-83109302D01*
X127316270Y-83019084D01*
X127272022Y-82932241D01*
X127155216Y-82771471D01*
X127149846Y-82766101D01*
X127116361Y-82704778D01*
X127121345Y-82635086D01*
X127163217Y-82579153D01*
X127228681Y-82554736D01*
X127237527Y-82554420D01*
X127365042Y-82554420D01*
X127365043Y-82554420D01*
X127561318Y-82523333D01*
X127750314Y-82461925D01*
X127927376Y-82371707D01*
X128088146Y-82254901D01*
X128228663Y-82114384D01*
X128345469Y-81953614D01*
X128435687Y-81776552D01*
X128497095Y-81587556D01*
X128528182Y-81391281D01*
X128528182Y-81192559D01*
X128497095Y-80996284D01*
X128455221Y-80867407D01*
X128435688Y-80807290D01*
X128435687Y-80807287D01*
X128370726Y-80679795D01*
X128345469Y-80630226D01*
X128228663Y-80469456D01*
X128088146Y-80328939D01*
X127927376Y-80212133D01*
X127750314Y-80121914D01*
X127750311Y-80121913D01*
X127561319Y-80060507D01*
X127463180Y-80044963D01*
X127365043Y-80029420D01*
X127166321Y-80029420D01*
X127100896Y-80039782D01*
X126970044Y-80060507D01*
X126781052Y-80121913D01*
X126781049Y-80121914D01*
X126603987Y-80212133D01*
X126443215Y-80328941D01*
X126302703Y-80469453D01*
X126185895Y-80630225D01*
X126095676Y-80807287D01*
X126095675Y-80807290D01*
X126034269Y-80996282D01*
X126003182Y-81192559D01*
X126003182Y-81391280D01*
X126034269Y-81587557D01*
X126095675Y-81776549D01*
X126095676Y-81776552D01*
X126185051Y-81951958D01*
X126185895Y-81953614D01*
X126302701Y-82114384D01*
X126302703Y-82114386D01*
X126308071Y-82119754D01*
X126341556Y-82181077D01*
X126336572Y-82250769D01*
X126294700Y-82306702D01*
X126229236Y-82331119D01*
X126220390Y-82331435D01*
X126092874Y-82331435D01*
X126051778Y-82337944D01*
X125896597Y-82362522D01*
X125707605Y-82423928D01*
X125707602Y-82423929D01*
X125530540Y-82514148D01*
X125369768Y-82630956D01*
X125229256Y-82771468D01*
X125112448Y-82932240D01*
X125022229Y-83109302D01*
X125022228Y-83109305D01*
X124960822Y-83298297D01*
X124937526Y-83445382D01*
X124929735Y-83494574D01*
X124929735Y-83693296D01*
X124936889Y-83738462D01*
X124960822Y-83889572D01*
X125022228Y-84078564D01*
X125022229Y-84078567D01*
X125102916Y-84236921D01*
X125112448Y-84255629D01*
X125229254Y-84416399D01*
X125229256Y-84416401D01*
X125234640Y-84421785D01*
X125268125Y-84483108D01*
X125263141Y-84552800D01*
X125221269Y-84608733D01*
X125155805Y-84633150D01*
X125146959Y-84633466D01*
X125019428Y-84633466D01*
X124954003Y-84643828D01*
X124823151Y-84664553D01*
X124634159Y-84725959D01*
X124634156Y-84725960D01*
X124457094Y-84816179D01*
X124296322Y-84932987D01*
X124155810Y-85073499D01*
X124039002Y-85234271D01*
X123948783Y-85411333D01*
X123948782Y-85411336D01*
X123887376Y-85600328D01*
X123856289Y-85796605D01*
X123856289Y-85995326D01*
X123887376Y-86191603D01*
X123948782Y-86380595D01*
X123948783Y-86380598D01*
X123994395Y-86470115D01*
X124039002Y-86557660D01*
X124155808Y-86718430D01*
X124155810Y-86718432D01*
X124161184Y-86723806D01*
X124194669Y-86785129D01*
X124189685Y-86854821D01*
X124147813Y-86910754D01*
X124082349Y-86935171D01*
X124073503Y-86935487D01*
X123945972Y-86935487D01*
X123880547Y-86945849D01*
X123749695Y-86966574D01*
X123560703Y-87027980D01*
X123560700Y-87027981D01*
X123383638Y-87118200D01*
X123222866Y-87235008D01*
X123082354Y-87375520D01*
X122965546Y-87536292D01*
X122875327Y-87713354D01*
X122875326Y-87713357D01*
X122813920Y-87902349D01*
X122782833Y-88098626D01*
X122782833Y-88297347D01*
X122813920Y-88493624D01*
X122875326Y-88682616D01*
X122875327Y-88682619D01*
X122958752Y-88846347D01*
X122965546Y-88859681D01*
X123082352Y-89020451D01*
X123082354Y-89020453D01*
X123087720Y-89025819D01*
X123121205Y-89087142D01*
X123116221Y-89156834D01*
X123074349Y-89212767D01*
X123008885Y-89237184D01*
X123000039Y-89237500D01*
X122872524Y-89237500D01*
X122807099Y-89247862D01*
X122676247Y-89268587D01*
X122487255Y-89329993D01*
X122487252Y-89329994D01*
X122310190Y-89420213D01*
X122149418Y-89537021D01*
X122008906Y-89677533D01*
X121892098Y-89838305D01*
X121801879Y-90015367D01*
X121801878Y-90015370D01*
X121740472Y-90204362D01*
X121709385Y-90400639D01*
X121709385Y-90599360D01*
X121740472Y-90795637D01*
X121801878Y-90984629D01*
X121801879Y-90984632D01*
X121886373Y-91150458D01*
X121892098Y-91161694D01*
X122008904Y-91322464D01*
X122008906Y-91322466D01*
X122014288Y-91327848D01*
X122047773Y-91389171D01*
X122042789Y-91458863D01*
X122000917Y-91514796D01*
X121935453Y-91539213D01*
X121926607Y-91539529D01*
X121799077Y-91539529D01*
X121733652Y-91549891D01*
X121602800Y-91570616D01*
X121413808Y-91632022D01*
X121413805Y-91632023D01*
X121236743Y-91722242D01*
X121075971Y-91839050D01*
X120935459Y-91979562D01*
X120818651Y-92140334D01*
X120728432Y-92317396D01*
X120728431Y-92317399D01*
X120667025Y-92506391D01*
X120635938Y-92702668D01*
X120635938Y-92901389D01*
X120667025Y-93097666D01*
X120728431Y-93286658D01*
X120728432Y-93286661D01*
X120804986Y-93436905D01*
X120818651Y-93463723D01*
X120935457Y-93624493D01*
X120935459Y-93624495D01*
X120940834Y-93629870D01*
X120974319Y-93691193D01*
X120969335Y-93760885D01*
X120927463Y-93816818D01*
X120861999Y-93841235D01*
X120853153Y-93841551D01*
X120725626Y-93841551D01*
X120660201Y-93851913D01*
X120529349Y-93872638D01*
X120340357Y-93934044D01*
X120340354Y-93934045D01*
X120163292Y-94024264D01*
X120002520Y-94141072D01*
X119862008Y-94281584D01*
X119745200Y-94442356D01*
X119654981Y-94619418D01*
X119654980Y-94619421D01*
X119593574Y-94808413D01*
X119562487Y-95004690D01*
X116980427Y-95004690D01*
X116933025Y-84385646D01*
X117796999Y-84385646D01*
X117796999Y-84614354D01*
X117802391Y-84648397D01*
X117832777Y-84840246D01*
X117832777Y-84840249D01*
X117903449Y-85057755D01*
X117991478Y-85230521D01*
X118007282Y-85261538D01*
X118141713Y-85446566D01*
X118303433Y-85608286D01*
X118488461Y-85742717D01*
X118692241Y-85846548D01*
X118692243Y-85846549D01*
X118909750Y-85917221D01*
X118909751Y-85917221D01*
X118909754Y-85917222D01*
X119135645Y-85953000D01*
X119135646Y-85953000D01*
X119364352Y-85953000D01*
X119364353Y-85953000D01*
X119590244Y-85917222D01*
X119590247Y-85917221D01*
X119590248Y-85917221D01*
X119807754Y-85846549D01*
X119807754Y-85846548D01*
X119807757Y-85846548D01*
X120011537Y-85742717D01*
X120196565Y-85608286D01*
X120358285Y-85446566D01*
X120492716Y-85261538D01*
X120596547Y-85057758D01*
X120596548Y-85057755D01*
X120667220Y-84840249D01*
X120667220Y-84840248D01*
X120667221Y-84840245D01*
X120702999Y-84614354D01*
X120702999Y-84385646D01*
X120667221Y-84159755D01*
X120667220Y-84159751D01*
X120667220Y-84159750D01*
X120596548Y-83942244D01*
X120556580Y-83863803D01*
X120492716Y-83738462D01*
X120478303Y-83718625D01*
X120454824Y-83652820D01*
X120470649Y-83584766D01*
X120520754Y-83536071D01*
X120589232Y-83522195D01*
X120601170Y-83523837D01*
X120768570Y-83537578D01*
X120768572Y-83537578D01*
X120934119Y-83510902D01*
X121088477Y-83445382D01*
X121222660Y-83344831D01*
X121222665Y-83344826D01*
X121328890Y-83215079D01*
X121328890Y-83215078D01*
X121360809Y-83152950D01*
X121360815Y-83152936D01*
X121454579Y-82920861D01*
X120513082Y-82540472D01*
X120601597Y-82451958D01*
X120667423Y-82337944D01*
X120701498Y-82210777D01*
X120701498Y-82079125D01*
X120700958Y-82077111D01*
X121641883Y-82457269D01*
X121735646Y-82225199D01*
X121735650Y-82225186D01*
X121755850Y-82158318D01*
X121755852Y-82158309D01*
X121769568Y-81991197D01*
X121769567Y-81991193D01*
X121742893Y-81825649D01*
X121742891Y-81825639D01*
X121677376Y-81671297D01*
X121677372Y-81671291D01*
X121576817Y-81537102D01*
X121447069Y-81430876D01*
X121384940Y-81398957D01*
X121384926Y-81398950D01*
X120858472Y-81186248D01*
X120858471Y-81186249D01*
X120597018Y-81833365D01*
X120508505Y-81744852D01*
X120394491Y-81679026D01*
X120267324Y-81644951D01*
X120135672Y-81644951D01*
X120133658Y-81645490D01*
X120394879Y-80998946D01*
X119868426Y-80786246D01*
X119868408Y-80786239D01*
X119801542Y-80766041D01*
X119634425Y-80752323D01*
X119634423Y-80752323D01*
X119468876Y-80778999D01*
X119314518Y-80844519D01*
X119180335Y-80945070D01*
X119180330Y-80945075D01*
X119074105Y-81074822D01*
X119074105Y-81074823D01*
X119042182Y-81136958D01*
X118948415Y-81369038D01*
X118948415Y-81369039D01*
X119889913Y-81749429D01*
X119801399Y-81837944D01*
X119735573Y-81951958D01*
X119701498Y-82079125D01*
X119701498Y-82210777D01*
X119702037Y-82212789D01*
X119479672Y-82122948D01*
X118761112Y-81832630D01*
X118667346Y-82064712D01*
X118647145Y-82131583D01*
X118647143Y-82131592D01*
X118633427Y-82298704D01*
X118633428Y-82298708D01*
X118660102Y-82464252D01*
X118660104Y-82464262D01*
X118725619Y-82618604D01*
X118725623Y-82618610D01*
X118826178Y-82752799D01*
X118961001Y-82863180D01*
X118959704Y-82864764D01*
X118998702Y-82910603D01*
X119008018Y-82979849D01*
X118978418Y-83043139D01*
X118919300Y-83080379D01*
X118914392Y-83081664D01*
X118909752Y-83082777D01*
X118692243Y-83153450D01*
X118488460Y-83257283D01*
X118432010Y-83298297D01*
X118303433Y-83391714D01*
X118303431Y-83391716D01*
X118303430Y-83391716D01*
X118141715Y-83553431D01*
X118141715Y-83553432D01*
X118141713Y-83553434D01*
X118105573Y-83603176D01*
X118007282Y-83738461D01*
X117903449Y-83942244D01*
X117832777Y-84159750D01*
X117832777Y-84159753D01*
X117817592Y-84255629D01*
X117796999Y-84385646D01*
X116933025Y-84385646D01*
X116903322Y-77731356D01*
X116922707Y-77664231D01*
X116975307Y-77618241D01*
X117028560Y-77606810D01*
X121931127Y-77655837D01*
X121986613Y-77658686D01*
X121996866Y-77656495D01*
X122007351Y-77656600D01*
X122058685Y-77643392D01*
X122063634Y-77642227D01*
X128463280Y-76274786D01*
X128494235Y-76272153D01*
X130253260Y-76343951D01*
X130272718Y-76346296D01*
X134373208Y-77173920D01*
X134387577Y-77179987D01*
X134437608Y-77186919D01*
X134487104Y-77196909D01*
X134490227Y-77196713D01*
X134515006Y-77197642D01*
X134796516Y-77236647D01*
X134860217Y-77265345D01*
X134898293Y-77323929D01*
X134898651Y-77393798D01*
X134861178Y-77452769D01*
X134852382Y-77459791D01*
X134758047Y-77528329D01*
X134613293Y-77673083D01*
X134492980Y-77838683D01*
X134400046Y-78021073D01*
X134336787Y-78215762D01*
X134304765Y-78417945D01*
X134304765Y-78622648D01*
X134336787Y-78824831D01*
X134400046Y-79019520D01*
X134463956Y-79144950D01*
X134492508Y-79200985D01*
X134492980Y-79201910D01*
X134613293Y-79367510D01*
X134613299Y-79367516D01*
X134758046Y-79512263D01*
X134923655Y-79632584D01*
X134937058Y-79639413D01*
X134987854Y-79687385D01*
X135004765Y-79749898D01*
X135004765Y-98131807D01*
X134985080Y-98198846D01*
X134953651Y-98232124D01*
X134932989Y-98247137D01*
X134888099Y-98279751D01*
X134747586Y-98420264D01*
X134630778Y-98581036D01*
X134540559Y-98758098D01*
X134540558Y-98758101D01*
X134479152Y-98947093D01*
X134464151Y-99041806D01*
X134448065Y-99143370D01*
X134448065Y-99342092D01*
X134457132Y-99399338D01*
X134479152Y-99538368D01*
X134540558Y-99727360D01*
X134540559Y-99727363D01*
X134594958Y-99834125D01*
X134630778Y-99904425D01*
X134747584Y-100065195D01*
X134747586Y-100065197D01*
X134752954Y-100070565D01*
X134786439Y-100131888D01*
X134781455Y-100201580D01*
X134739583Y-100257513D01*
X134674119Y-100281930D01*
X134665273Y-100282246D01*
X134537757Y-100282246D01*
X134472332Y-100292608D01*
X134341480Y-100313333D01*
X134152488Y-100374739D01*
X134152485Y-100374740D01*
X133975423Y-100464959D01*
X133814651Y-100581767D01*
X133674139Y-100722279D01*
X133557331Y-100883051D01*
X133467112Y-101060113D01*
X133467111Y-101060116D01*
X133405705Y-101249108D01*
X133385031Y-101379637D01*
X133374618Y-101445385D01*
X133374618Y-101644107D01*
X133380022Y-101678224D01*
X133405705Y-101840383D01*
X133467111Y-102029375D01*
X133467112Y-102029378D01*
X133522859Y-102138786D01*
X133557331Y-102206440D01*
X133674137Y-102367210D01*
X133814654Y-102507727D01*
X133975424Y-102624533D01*
X134000626Y-102637374D01*
X134152485Y-102714751D01*
X134152488Y-102714752D01*
X134195066Y-102728586D01*
X134341482Y-102776159D01*
X134537757Y-102807246D01*
X134537758Y-102807246D01*
X134736478Y-102807246D01*
X134736479Y-102807246D01*
X134932754Y-102776159D01*
X135121750Y-102714751D01*
X135298812Y-102624533D01*
X135306604Y-102618872D01*
X138249500Y-102618872D01*
X138249500Y-102881127D01*
X138270072Y-103037374D01*
X138283730Y-103141116D01*
X138351602Y-103394418D01*
X138351605Y-103394428D01*
X138451953Y-103636690D01*
X138451958Y-103636700D01*
X138583075Y-103863803D01*
X138742718Y-104071851D01*
X138742726Y-104071860D01*
X138928140Y-104257274D01*
X138928148Y-104257281D01*
X139136196Y-104416924D01*
X139363299Y-104548041D01*
X139363309Y-104548046D01*
X139590719Y-104642242D01*
X139605581Y-104648398D01*
X139858884Y-104716270D01*
X140118880Y-104750500D01*
X140118887Y-104750500D01*
X140381113Y-104750500D01*
X140381120Y-104750500D01*
X140641116Y-104716270D01*
X140894419Y-104648398D01*
X141136697Y-104548043D01*
X141363803Y-104416924D01*
X141571851Y-104257282D01*
X141571855Y-104257277D01*
X141571860Y-104257274D01*
X141757274Y-104071860D01*
X141757277Y-104071855D01*
X141757282Y-104071851D01*
X141916924Y-103863803D01*
X142048043Y-103636697D01*
X142148398Y-103394419D01*
X142216270Y-103141116D01*
X142250500Y-102881120D01*
X142250500Y-102647648D01*
X143699500Y-102647648D01*
X143699500Y-102852351D01*
X143731522Y-103054534D01*
X143794781Y-103249223D01*
X143887715Y-103431613D01*
X144008028Y-103597213D01*
X144152786Y-103741971D01*
X144278839Y-103833552D01*
X144318390Y-103862287D01*
X144434607Y-103921503D01*
X144500776Y-103955218D01*
X144500778Y-103955218D01*
X144500781Y-103955220D01*
X144546405Y-103970044D01*
X144695465Y-104018477D01*
X144796557Y-104034488D01*
X144897648Y-104050500D01*
X144897649Y-104050500D01*
X145102351Y-104050500D01*
X145102352Y-104050500D01*
X145304534Y-104018477D01*
X145499219Y-103955220D01*
X145681610Y-103862287D01*
X145767577Y-103799829D01*
X145767579Y-103799828D01*
X145847212Y-103741971D01*
X145847210Y-103741971D01*
X145847219Y-103741966D01*
X145991966Y-103597219D01*
X145991968Y-103597215D01*
X145991971Y-103597213D01*
X146044732Y-103524590D01*
X146112287Y-103431610D01*
X146205220Y-103249219D01*
X146268477Y-103054534D01*
X146300500Y-102852352D01*
X146300500Y-102647648D01*
X146268477Y-102445466D01*
X146205220Y-102250781D01*
X146205218Y-102250778D01*
X146205218Y-102250776D01*
X146171503Y-102184607D01*
X146112287Y-102068390D01*
X146104556Y-102057749D01*
X145991971Y-101902786D01*
X145847213Y-101758028D01*
X145681613Y-101637715D01*
X145681612Y-101637714D01*
X145681610Y-101637713D01*
X145607626Y-101600016D01*
X145499223Y-101544781D01*
X145304534Y-101481522D01*
X145129995Y-101453878D01*
X145102352Y-101449500D01*
X144897648Y-101449500D01*
X144873329Y-101453351D01*
X144695465Y-101481522D01*
X144500776Y-101544781D01*
X144318386Y-101637715D01*
X144152786Y-101758028D01*
X144008028Y-101902786D01*
X143887715Y-102068386D01*
X143794781Y-102250776D01*
X143731522Y-102445465D01*
X143699500Y-102647648D01*
X142250500Y-102647648D01*
X142250500Y-102618880D01*
X142216270Y-102358884D01*
X142148398Y-102105581D01*
X142132993Y-102068390D01*
X142048046Y-101863309D01*
X142048041Y-101863299D01*
X141916924Y-101636196D01*
X141773665Y-101449500D01*
X141757282Y-101428149D01*
X141757281Y-101428148D01*
X141757274Y-101428140D01*
X141571860Y-101242726D01*
X141571851Y-101242718D01*
X141363803Y-101083075D01*
X141136700Y-100951958D01*
X141136690Y-100951953D01*
X140894428Y-100851605D01*
X140894421Y-100851603D01*
X140894419Y-100851602D01*
X140641116Y-100783730D01*
X140583339Y-100776123D01*
X140381127Y-100749500D01*
X140381120Y-100749500D01*
X140118880Y-100749500D01*
X140118872Y-100749500D01*
X139887772Y-100779926D01*
X139858884Y-100783730D01*
X139605581Y-100851602D01*
X139605571Y-100851605D01*
X139363309Y-100951953D01*
X139363299Y-100951958D01*
X139136196Y-101083075D01*
X138928148Y-101242718D01*
X138742718Y-101428148D01*
X138583075Y-101636196D01*
X138451958Y-101863299D01*
X138451953Y-101863309D01*
X138351605Y-102105571D01*
X138351602Y-102105581D01*
X138283730Y-102358885D01*
X138249500Y-102618872D01*
X135306604Y-102618872D01*
X135459582Y-102507727D01*
X135600099Y-102367210D01*
X135716905Y-102206440D01*
X135807123Y-102029378D01*
X135868531Y-101840382D01*
X135899618Y-101644107D01*
X135899618Y-101445385D01*
X135868531Y-101249110D01*
X135822845Y-101108501D01*
X135807124Y-101060116D01*
X135807123Y-101060113D01*
X135761153Y-100969895D01*
X135716905Y-100883052D01*
X135600099Y-100722282D01*
X135594729Y-100716912D01*
X135561244Y-100655589D01*
X135566228Y-100585897D01*
X135608100Y-100529964D01*
X135673564Y-100505547D01*
X135682410Y-100505231D01*
X135809925Y-100505231D01*
X135809926Y-100505231D01*
X136006201Y-100474144D01*
X136195197Y-100412736D01*
X136372259Y-100322518D01*
X136533029Y-100205712D01*
X136673546Y-100065195D01*
X136790352Y-99904425D01*
X136880570Y-99727363D01*
X136941978Y-99538367D01*
X136973065Y-99342092D01*
X136973065Y-99143370D01*
X136941978Y-98947095D01*
X136880570Y-98758099D01*
X136880570Y-98758098D01*
X136799793Y-98599566D01*
X136790352Y-98581037D01*
X136673546Y-98420267D01*
X136668160Y-98414881D01*
X136634675Y-98353558D01*
X136639659Y-98283866D01*
X136681531Y-98227933D01*
X136746995Y-98203516D01*
X136755841Y-98203200D01*
X136883371Y-98203200D01*
X136883372Y-98203200D01*
X137079647Y-98172113D01*
X137268643Y-98110705D01*
X137445705Y-98020487D01*
X137606475Y-97903681D01*
X137746992Y-97763164D01*
X137863798Y-97602394D01*
X137954016Y-97425332D01*
X138015424Y-97236336D01*
X138046511Y-97040061D01*
X138046511Y-96841339D01*
X138015424Y-96645064D01*
X137984720Y-96550566D01*
X137954017Y-96456070D01*
X137954016Y-96456067D01*
X137863797Y-96279005D01*
X137746992Y-96118236D01*
X137741616Y-96112860D01*
X137708131Y-96051537D01*
X137713115Y-95981845D01*
X137754987Y-95925912D01*
X137820451Y-95901495D01*
X137829297Y-95901179D01*
X137956827Y-95901179D01*
X137956828Y-95901179D01*
X138153103Y-95870092D01*
X138202322Y-95854100D01*
X141355164Y-95854100D01*
X141355164Y-96066674D01*
X141388418Y-96276630D01*
X141446721Y-96456068D01*
X141454108Y-96478801D01*
X141550615Y-96668207D01*
X141675554Y-96840173D01*
X141807311Y-96971930D01*
X141840796Y-97033253D01*
X141835812Y-97102945D01*
X141793940Y-97158878D01*
X141764985Y-97175019D01*
X141635505Y-97225904D01*
X141635504Y-97225904D01*
X141521927Y-97314062D01*
X141437782Y-97430651D01*
X141389897Y-97566221D01*
X141384536Y-97625868D01*
X141384536Y-97625873D01*
X141395841Y-98273599D01*
X141395842Y-98273599D01*
X142312602Y-98257596D01*
X142284075Y-98307007D01*
X142250000Y-98434174D01*
X142250000Y-98565826D01*
X142284075Y-98692993D01*
X142321329Y-98757520D01*
X141404567Y-98773521D01*
X141415874Y-99421246D01*
X141415875Y-99421248D01*
X141423315Y-99480678D01*
X141475904Y-99614495D01*
X141564062Y-99728072D01*
X141680651Y-99812217D01*
X141816221Y-99860102D01*
X141875868Y-99865463D01*
X141875873Y-99865463D01*
X142523599Y-99854157D01*
X142507596Y-98937397D01*
X142557007Y-98965925D01*
X142684174Y-99000000D01*
X142815826Y-99000000D01*
X142942993Y-98965925D01*
X143007520Y-98928670D01*
X143023521Y-99845431D01*
X143023522Y-99845431D01*
X143671246Y-99834125D01*
X143671248Y-99834124D01*
X143730678Y-99826684D01*
X143864495Y-99774095D01*
X143978072Y-99685937D01*
X144062217Y-99569348D01*
X144110102Y-99433778D01*
X144115463Y-99374131D01*
X144115463Y-99374126D01*
X144104157Y-98726399D01*
X143187399Y-98742401D01*
X143215925Y-98692993D01*
X143250000Y-98565826D01*
X143250000Y-98434174D01*
X143215925Y-98307007D01*
X143178669Y-98242479D01*
X144095431Y-98226477D01*
X144095431Y-98226476D01*
X144084125Y-97578753D01*
X144084124Y-97578751D01*
X144076684Y-97519321D01*
X144024095Y-97385504D01*
X143935937Y-97271927D01*
X143819348Y-97187782D01*
X143686184Y-97140747D01*
X143629528Y-97099858D01*
X143603971Y-97034830D01*
X143617629Y-96966309D01*
X143639795Y-96936151D01*
X143735768Y-96840179D01*
X143860715Y-96668203D01*
X143957221Y-96478799D01*
X144022910Y-96276630D01*
X144056164Y-96066674D01*
X144056164Y-95854100D01*
X144022910Y-95644144D01*
X143957221Y-95441975D01*
X143860715Y-95252571D01*
X143860713Y-95252568D01*
X143860712Y-95252566D01*
X143735773Y-95080600D01*
X143585450Y-94930277D01*
X143413484Y-94805338D01*
X143224078Y-94708831D01*
X143224077Y-94708830D01*
X143224076Y-94708830D01*
X143021907Y-94643141D01*
X143021905Y-94643140D01*
X143021904Y-94643140D01*
X142860621Y-94617595D01*
X142811951Y-94609887D01*
X142599377Y-94609887D01*
X142550706Y-94617595D01*
X142389424Y-94643140D01*
X142187249Y-94708831D01*
X141997843Y-94805338D01*
X141825877Y-94930277D01*
X141675554Y-95080600D01*
X141550615Y-95252566D01*
X141454108Y-95441972D01*
X141388417Y-95644147D01*
X141376646Y-95718466D01*
X141355164Y-95854100D01*
X138202322Y-95854100D01*
X138342099Y-95808684D01*
X138519161Y-95718466D01*
X138679931Y-95601660D01*
X138820448Y-95461143D01*
X138937254Y-95300373D01*
X139027472Y-95123311D01*
X139088880Y-94934315D01*
X139119967Y-94738040D01*
X139119967Y-94539318D01*
X139088880Y-94343043D01*
X139027472Y-94154047D01*
X139027472Y-94154046D01*
X138937253Y-93976984D01*
X138820448Y-93816215D01*
X138815080Y-93810847D01*
X138781595Y-93749524D01*
X138786579Y-93679832D01*
X138828451Y-93623899D01*
X138893915Y-93599482D01*
X138902761Y-93599166D01*
X139030275Y-93599166D01*
X139030276Y-93599166D01*
X139226551Y-93568079D01*
X139415547Y-93506671D01*
X139592609Y-93416453D01*
X139753379Y-93299647D01*
X139893896Y-93159130D01*
X140010702Y-92998360D01*
X140100920Y-92821298D01*
X140162328Y-92632302D01*
X140193415Y-92436027D01*
X140193415Y-92237305D01*
X140162328Y-92041030D01*
X140100920Y-91852034D01*
X140100920Y-91852033D01*
X140034787Y-91722242D01*
X140010702Y-91674972D01*
X139893896Y-91514202D01*
X139888512Y-91508818D01*
X139855027Y-91447495D01*
X139860011Y-91377803D01*
X139901883Y-91321870D01*
X139967347Y-91297453D01*
X139976193Y-91297137D01*
X140103722Y-91297137D01*
X140103723Y-91297137D01*
X140299998Y-91266050D01*
X140488994Y-91204642D01*
X140666056Y-91114424D01*
X140826826Y-90997618D01*
X140967343Y-90857101D01*
X141084149Y-90696331D01*
X141174367Y-90519269D01*
X141235775Y-90330273D01*
X141266862Y-90133998D01*
X141266862Y-89935276D01*
X141235775Y-89739001D01*
X141174367Y-89550005D01*
X141174367Y-89550004D01*
X141112915Y-89429399D01*
X141084149Y-89372943D01*
X140967343Y-89212173D01*
X140961966Y-89206796D01*
X140928481Y-89145473D01*
X140933465Y-89075781D01*
X140975337Y-89019848D01*
X141040801Y-88995431D01*
X141049647Y-88995115D01*
X141177173Y-88995115D01*
X141177174Y-88995115D01*
X141373449Y-88964028D01*
X141562445Y-88902620D01*
X141739507Y-88812402D01*
X141900277Y-88695596D01*
X142040794Y-88555079D01*
X142157600Y-88394309D01*
X142247818Y-88217247D01*
X142309226Y-88028251D01*
X142340313Y-87831976D01*
X142340313Y-87633254D01*
X142309226Y-87436979D01*
X142247818Y-87247983D01*
X142247818Y-87247982D01*
X142157599Y-87070920D01*
X142154004Y-87065972D01*
X142040794Y-86910151D01*
X141900277Y-86769634D01*
X141739507Y-86652828D01*
X141562445Y-86562609D01*
X141562442Y-86562608D01*
X141373450Y-86501202D01*
X141275311Y-86485658D01*
X141177174Y-86470115D01*
X140978452Y-86470115D01*
X140913027Y-86480477D01*
X140782175Y-86501202D01*
X140593183Y-86562608D01*
X140593180Y-86562609D01*
X140416118Y-86652828D01*
X140255346Y-86769636D01*
X140114834Y-86910148D01*
X139998026Y-87070920D01*
X139907807Y-87247982D01*
X139907806Y-87247985D01*
X139846400Y-87436977D01*
X139815313Y-87633254D01*
X139815313Y-87831975D01*
X139846400Y-88028252D01*
X139907806Y-88217244D01*
X139907807Y-88217247D01*
X139961291Y-88322213D01*
X139998026Y-88394309D01*
X140114832Y-88555079D01*
X140114834Y-88555081D01*
X140120209Y-88560456D01*
X140153694Y-88621779D01*
X140148710Y-88691471D01*
X140106838Y-88747404D01*
X140041374Y-88771821D01*
X140032528Y-88772137D01*
X139905001Y-88772137D01*
X139839576Y-88782499D01*
X139708724Y-88803224D01*
X139519732Y-88864630D01*
X139519729Y-88864631D01*
X139342667Y-88954850D01*
X139181895Y-89071658D01*
X139041383Y-89212170D01*
X138924575Y-89372942D01*
X138834356Y-89550004D01*
X138834355Y-89550007D01*
X138772949Y-89738999D01*
X138753384Y-89862527D01*
X138741862Y-89935276D01*
X138741862Y-90133998D01*
X138742469Y-90137828D01*
X138772949Y-90330274D01*
X138834355Y-90519266D01*
X138834356Y-90519269D01*
X138910921Y-90669534D01*
X138924575Y-90696331D01*
X139041381Y-90857101D01*
X139041383Y-90857103D01*
X139046765Y-90862485D01*
X139080250Y-90923808D01*
X139075266Y-90993500D01*
X139033394Y-91049433D01*
X138967930Y-91073850D01*
X138959084Y-91074166D01*
X138831554Y-91074166D01*
X138766129Y-91084528D01*
X138635277Y-91105253D01*
X138446285Y-91166659D01*
X138446282Y-91166660D01*
X138269220Y-91256879D01*
X138108448Y-91373687D01*
X137967936Y-91514199D01*
X137851128Y-91674971D01*
X137760909Y-91852033D01*
X137760908Y-91852036D01*
X137699502Y-92041028D01*
X137668415Y-92237305D01*
X137668415Y-92436026D01*
X137699502Y-92632303D01*
X137760908Y-92821295D01*
X137760909Y-92821298D01*
X137801719Y-92901390D01*
X137851128Y-92998360D01*
X137967934Y-93159130D01*
X137967936Y-93159132D01*
X137973302Y-93164498D01*
X138006787Y-93225821D01*
X138001803Y-93295513D01*
X137959931Y-93351446D01*
X137894467Y-93375863D01*
X137885621Y-93376179D01*
X137758106Y-93376179D01*
X137692681Y-93386541D01*
X137561829Y-93407266D01*
X137372837Y-93468672D01*
X137372834Y-93468673D01*
X137195772Y-93558892D01*
X137035000Y-93675700D01*
X136894488Y-93816212D01*
X136777680Y-93976984D01*
X136687461Y-94154046D01*
X136687460Y-94154049D01*
X136626054Y-94343041D01*
X136594967Y-94539318D01*
X136594967Y-94738039D01*
X136626054Y-94934316D01*
X136687460Y-95123308D01*
X136687461Y-95123311D01*
X136777680Y-95300373D01*
X136894486Y-95461143D01*
X136894488Y-95461145D01*
X136899862Y-95466519D01*
X136933347Y-95527842D01*
X136928363Y-95597534D01*
X136886491Y-95653467D01*
X136821027Y-95677884D01*
X136812181Y-95678200D01*
X136684650Y-95678200D01*
X136645395Y-95684417D01*
X136488371Y-95709287D01*
X136368082Y-95748371D01*
X136298241Y-95750366D01*
X136238409Y-95714285D01*
X136207581Y-95651584D01*
X136205765Y-95630440D01*
X136205765Y-79749898D01*
X136225450Y-79682859D01*
X136273471Y-79639413D01*
X136286875Y-79632584D01*
X136452484Y-79512263D01*
X136597231Y-79367516D01*
X136597233Y-79367512D01*
X136597236Y-79367510D01*
X136649997Y-79294887D01*
X136717552Y-79201907D01*
X136810485Y-79019516D01*
X136873742Y-78824831D01*
X136905765Y-78622649D01*
X136905765Y-78417945D01*
X136894849Y-78349025D01*
X136873742Y-78215762D01*
X136830919Y-78083967D01*
X136810485Y-78021078D01*
X136810483Y-78021075D01*
X136810483Y-78021073D01*
X136776768Y-77954904D01*
X136717552Y-77838687D01*
X136617456Y-77700915D01*
X136593976Y-77635109D01*
X136609802Y-77567055D01*
X136659908Y-77518360D01*
X136728386Y-77504485D01*
X136734787Y-77505202D01*
X140806405Y-78069343D01*
X140830507Y-78076794D01*
X140871412Y-78078350D01*
X140911958Y-78083968D01*
X140926995Y-78082091D01*
X140947057Y-78081228D01*
X147920359Y-78346519D01*
X147922955Y-78347292D01*
X147986211Y-78349025D01*
X148049347Y-78351427D01*
X148049348Y-78351426D01*
X148050931Y-78351487D01*
X148062386Y-78351112D01*
X153567299Y-78501933D01*
X153585050Y-78503703D01*
X157493953Y-79180245D01*
X157505647Y-79184964D01*
X157558705Y-79191453D01*
X157611381Y-79200570D01*
X157611387Y-79200569D01*
X157613952Y-79200673D01*
X157633895Y-79200985D01*
X157636448Y-79200961D01*
X157636456Y-79200962D01*
X157686356Y-79193923D01*
X157692423Y-79193221D01*
X157742627Y-79188671D01*
X157742628Y-79188670D01*
X157745090Y-79188116D01*
X157767535Y-79182475D01*
X165153652Y-78140845D01*
X165195366Y-78139021D01*
X165218639Y-78131680D01*
X165223945Y-78130931D01*
X165242804Y-78128273D01*
X165260723Y-78120656D01*
X165275723Y-78114281D01*
X165286934Y-78110141D01*
X172360041Y-75879394D01*
X172429895Y-75878004D01*
X172489414Y-75914601D01*
X172519698Y-75977566D01*
X172519809Y-76017050D01*
X172492602Y-76188832D01*
X172492602Y-76440756D01*
X172532012Y-76689580D01*
X172609862Y-76929178D01*
X172662653Y-77032785D01*
X172723435Y-77152076D01*
X172724234Y-77153643D01*
X172872303Y-77357444D01*
X172872307Y-77357449D01*
X173050447Y-77535589D01*
X173050452Y-77535593D01*
X173146743Y-77605552D01*
X173254257Y-77683665D01*
X173397286Y-77756542D01*
X173478718Y-77798034D01*
X173478720Y-77798034D01*
X173478723Y-77798036D01*
X173718317Y-77875885D01*
X173967140Y-77915295D01*
X173967141Y-77915295D01*
X174219063Y-77915295D01*
X174219064Y-77915295D01*
X174467887Y-77875885D01*
X174707481Y-77798036D01*
X174931947Y-77683665D01*
X175135758Y-77535588D01*
X175313895Y-77357451D01*
X175461972Y-77153640D01*
X175576343Y-76929174D01*
X175654192Y-76689580D01*
X175693602Y-76440757D01*
X175693602Y-76188833D01*
X175654192Y-75940010D01*
X175576343Y-75700416D01*
X175576341Y-75700413D01*
X175576341Y-75700411D01*
X175534849Y-75618979D01*
X175461972Y-75475950D01*
X175443054Y-75449912D01*
X175313900Y-75272145D01*
X175313896Y-75272140D01*
X175211799Y-75170043D01*
X175178314Y-75108720D01*
X175183298Y-75039028D01*
X175225170Y-74983095D01*
X175262179Y-74964106D01*
X177712078Y-74191446D01*
X177714285Y-74190774D01*
X181956099Y-72945896D01*
X182025967Y-72945906D01*
X182084740Y-72983688D01*
X182113756Y-73047248D01*
X182114806Y-73072087D01*
X182111544Y-73128093D01*
X182128000Y-73230076D01*
X182128004Y-73230092D01*
X182128005Y-73230096D01*
X182226974Y-73599456D01*
X182252683Y-73695400D01*
X182251020Y-73765250D01*
X182220589Y-73815175D01*
X177773585Y-78262181D01*
X177712262Y-78295666D01*
X177685904Y-78298500D01*
X170802020Y-78298500D01*
X170628799Y-78298500D01*
X170543254Y-78312049D01*
X170457708Y-78325598D01*
X170292959Y-78379128D01*
X170138621Y-78457768D01*
X170077834Y-78501933D01*
X169998482Y-78559586D01*
X169998480Y-78559588D01*
X169998479Y-78559588D01*
X159117272Y-89440795D01*
X159055949Y-89474280D01*
X158986257Y-89469296D01*
X158930324Y-89427424D01*
X158911660Y-89391432D01*
X158855132Y-89217457D01*
X158800226Y-89109698D01*
X158751300Y-89013675D01*
X158616869Y-88828647D01*
X158455149Y-88666927D01*
X158270121Y-88532496D01*
X158205565Y-88499603D01*
X158066338Y-88428663D01*
X157848831Y-88357991D01*
X157679409Y-88331157D01*
X157622937Y-88322213D01*
X157394229Y-88322213D01*
X157318932Y-88334139D01*
X157168336Y-88357991D01*
X157168333Y-88357991D01*
X156950827Y-88428663D01*
X156747044Y-88532496D01*
X156647187Y-88605047D01*
X156562017Y-88666927D01*
X156562015Y-88666929D01*
X156562014Y-88666929D01*
X156400299Y-88828644D01*
X156400299Y-88828645D01*
X156400297Y-88828647D01*
X156346552Y-88902620D01*
X156265866Y-89013674D01*
X156162033Y-89217457D01*
X156091361Y-89434963D01*
X156091361Y-89434966D01*
X156055583Y-89660859D01*
X156055583Y-89889566D01*
X156091361Y-90115459D01*
X156091361Y-90115462D01*
X156162033Y-90332968D01*
X156235743Y-90477631D01*
X156265866Y-90536751D01*
X156400297Y-90721779D01*
X156400299Y-90721781D01*
X156521674Y-90843156D01*
X156555159Y-90904479D01*
X156550175Y-90974171D01*
X156508303Y-91030104D01*
X156491165Y-91040871D01*
X156462043Y-91056002D01*
X156462038Y-91056005D01*
X156358196Y-91155650D01*
X156286631Y-91280518D01*
X156286631Y-91280519D01*
X156253143Y-91420491D01*
X156254047Y-91480430D01*
X156254048Y-91480438D01*
X156497878Y-93466269D01*
X156506172Y-93501811D01*
X156511502Y-93524652D01*
X156511502Y-93524653D01*
X156511502Y-93524654D01*
X156511503Y-93524655D01*
X156577857Y-93652369D01*
X156677505Y-93756214D01*
X156802373Y-93827779D01*
X156942345Y-93861266D01*
X157002292Y-93860362D01*
X158988123Y-93616532D01*
X159046509Y-93602907D01*
X159174223Y-93536553D01*
X159278068Y-93436905D01*
X159349633Y-93312037D01*
X159383120Y-93172065D01*
X159382216Y-93112118D01*
X159299521Y-92438625D01*
X159310889Y-92369688D01*
X159334913Y-92335837D01*
X171134933Y-80535819D01*
X171196256Y-80502334D01*
X171222614Y-80499500D01*
X173776580Y-80499500D01*
X173843619Y-80519185D01*
X173889374Y-80571989D01*
X173899318Y-80641147D01*
X173887065Y-80679795D01*
X173841117Y-80769970D01*
X173780290Y-80957173D01*
X173749500Y-81151577D01*
X173749500Y-81348422D01*
X173780290Y-81542826D01*
X173841117Y-81730029D01*
X173906490Y-81858330D01*
X173930476Y-81905405D01*
X174046172Y-82064646D01*
X174185354Y-82203828D01*
X174344595Y-82319524D01*
X174367352Y-82331119D01*
X174519970Y-82408882D01*
X174519972Y-82408882D01*
X174519975Y-82408884D01*
X174566282Y-82423930D01*
X174707173Y-82469709D01*
X174901578Y-82500500D01*
X174901583Y-82500500D01*
X175098422Y-82500500D01*
X175292826Y-82469709D01*
X175316779Y-82461926D01*
X175480025Y-82408884D01*
X175655405Y-82319524D01*
X175814646Y-82203828D01*
X175953828Y-82064646D01*
X176069524Y-81905405D01*
X176158884Y-81730025D01*
X176219709Y-81542826D01*
X176220616Y-81537102D01*
X176250500Y-81348422D01*
X176250500Y-81151577D01*
X176219709Y-80957173D01*
X176171007Y-80807287D01*
X176158884Y-80769975D01*
X176158882Y-80769972D01*
X176158882Y-80769970D01*
X176112935Y-80679795D01*
X176100039Y-80611126D01*
X176126315Y-80546385D01*
X176183422Y-80506128D01*
X176223420Y-80499500D01*
X178279718Y-80499500D01*
X178279719Y-80499500D01*
X178364758Y-80486031D01*
X178434052Y-80494986D01*
X178487504Y-80539982D01*
X178508143Y-80606733D01*
X178489418Y-80674047D01*
X178471837Y-80696185D01*
X163495842Y-95672181D01*
X163434519Y-95705666D01*
X163408161Y-95708500D01*
X151279894Y-95708500D01*
X151046622Y-95745446D01*
X150890329Y-95796229D01*
X150852000Y-95808684D01*
X150841732Y-95812020D01*
X150821994Y-95818433D01*
X150611556Y-95925657D01*
X150420479Y-96064484D01*
X148605485Y-97879478D01*
X148605480Y-97879484D01*
X148567448Y-97931829D01*
X148512117Y-97974493D01*
X148442504Y-97980471D01*
X148407703Y-97967772D01*
X148404830Y-97966203D01*
X148269982Y-97915908D01*
X148269983Y-97915908D01*
X148210383Y-97909501D01*
X148210381Y-97909500D01*
X148210373Y-97909500D01*
X148210365Y-97909500D01*
X147934500Y-97909500D01*
X147867461Y-97889815D01*
X147821706Y-97837011D01*
X147810500Y-97785500D01*
X147810500Y-87630945D01*
X147810500Y-87630943D01*
X147769577Y-87478215D01*
X147740639Y-87428095D01*
X147690520Y-87341284D01*
X147578716Y-87229480D01*
X147578715Y-87229479D01*
X147574385Y-87225149D01*
X147574374Y-87225139D01*
X144886819Y-84537584D01*
X144853334Y-84476261D01*
X144850500Y-84449903D01*
X144850500Y-83755905D01*
X144850500Y-83755903D01*
X144809577Y-83603176D01*
X144780857Y-83553431D01*
X144730524Y-83466250D01*
X144730521Y-83466246D01*
X144730520Y-83466244D01*
X144618716Y-83354440D01*
X144618715Y-83354439D01*
X144614385Y-83350109D01*
X144614374Y-83350099D01*
X143883147Y-82618872D01*
X147749500Y-82618872D01*
X147749500Y-82881127D01*
X147762468Y-82979622D01*
X147783730Y-83141116D01*
X147840889Y-83354438D01*
X147851602Y-83394418D01*
X147851605Y-83394428D01*
X147951953Y-83636690D01*
X147951958Y-83636700D01*
X148083075Y-83863803D01*
X148242718Y-84071851D01*
X148242726Y-84071860D01*
X148428140Y-84257274D01*
X148428148Y-84257281D01*
X148636196Y-84416924D01*
X148863299Y-84548041D01*
X148863309Y-84548046D01*
X149068769Y-84633150D01*
X149105581Y-84648398D01*
X149358884Y-84716270D01*
X149618880Y-84750500D01*
X149618887Y-84750500D01*
X149881113Y-84750500D01*
X149881120Y-84750500D01*
X150141116Y-84716270D01*
X150394419Y-84648398D01*
X150636697Y-84548043D01*
X150863803Y-84416924D01*
X151071851Y-84257282D01*
X151071855Y-84257277D01*
X151071860Y-84257274D01*
X151257274Y-84071860D01*
X151257277Y-84071855D01*
X151257282Y-84071851D01*
X151416924Y-83863803D01*
X151548043Y-83636697D01*
X151648398Y-83394419D01*
X151716270Y-83141116D01*
X151737532Y-82979616D01*
X158861308Y-82979616D01*
X158861308Y-83176461D01*
X158892098Y-83370865D01*
X158952925Y-83558068D01*
X159034734Y-83718626D01*
X159042284Y-83733444D01*
X159157980Y-83892685D01*
X159297162Y-84031867D01*
X159456403Y-84147563D01*
X159539263Y-84189782D01*
X159631778Y-84236921D01*
X159631780Y-84236921D01*
X159631783Y-84236923D01*
X159732125Y-84269526D01*
X159818981Y-84297748D01*
X160013386Y-84328539D01*
X160013391Y-84328539D01*
X160210230Y-84328539D01*
X160404634Y-84297748D01*
X160591833Y-84236923D01*
X160767213Y-84147563D01*
X160926454Y-84031867D01*
X161065636Y-83892685D01*
X161181332Y-83733444D01*
X161270692Y-83558064D01*
X161331517Y-83370865D01*
X161362308Y-83176461D01*
X161362308Y-82979616D01*
X161331517Y-82785212D01*
X161282737Y-82635086D01*
X161270692Y-82598014D01*
X161270690Y-82598011D01*
X161270690Y-82598009D01*
X161201352Y-82461926D01*
X161181332Y-82422634D01*
X161065636Y-82263393D01*
X160926454Y-82124211D01*
X160767213Y-82008515D01*
X160763857Y-82006805D01*
X160591837Y-81919156D01*
X160404634Y-81858329D01*
X160210230Y-81827539D01*
X160210225Y-81827539D01*
X160013391Y-81827539D01*
X160013386Y-81827539D01*
X159818981Y-81858329D01*
X159631778Y-81919156D01*
X159456402Y-82008515D01*
X159379146Y-82064646D01*
X159297162Y-82124211D01*
X159297160Y-82124213D01*
X159297159Y-82124213D01*
X159157982Y-82263390D01*
X159157982Y-82263391D01*
X159157980Y-82263393D01*
X159132448Y-82298535D01*
X159042284Y-82422633D01*
X158952925Y-82598009D01*
X158892098Y-82785212D01*
X158861308Y-82979616D01*
X151737532Y-82979616D01*
X151750500Y-82881120D01*
X151750500Y-82618880D01*
X151750464Y-82618610D01*
X151740780Y-82545050D01*
X151716270Y-82358884D01*
X151648398Y-82105581D01*
X151648394Y-82105571D01*
X151548046Y-81863309D01*
X151548041Y-81863299D01*
X151416924Y-81636196D01*
X151294424Y-81476554D01*
X151257282Y-81428149D01*
X151257281Y-81428148D01*
X151257274Y-81428140D01*
X151071860Y-81242726D01*
X151071851Y-81242718D01*
X150863803Y-81083075D01*
X150636700Y-80951958D01*
X150636690Y-80951953D01*
X150394428Y-80851605D01*
X150394421Y-80851603D01*
X150394419Y-80851602D01*
X150141116Y-80783730D01*
X150083339Y-80776123D01*
X149881127Y-80749500D01*
X149881120Y-80749500D01*
X149618880Y-80749500D01*
X149618872Y-80749500D01*
X149387772Y-80779926D01*
X149358884Y-80783730D01*
X149132015Y-80844519D01*
X149105581Y-80851602D01*
X149105571Y-80851605D01*
X148863309Y-80951953D01*
X148863299Y-80951958D01*
X148636196Y-81083075D01*
X148428148Y-81242718D01*
X148242718Y-81428148D01*
X148083075Y-81636196D01*
X147951958Y-81863299D01*
X147951953Y-81863309D01*
X147851605Y-82105571D01*
X147851602Y-82105581D01*
X147794277Y-82319524D01*
X147783730Y-82358885D01*
X147749500Y-82618872D01*
X143883147Y-82618872D01*
X143688811Y-82424536D01*
X143655326Y-82363213D01*
X143658562Y-82298535D01*
X143663211Y-82284228D01*
X143695234Y-82082046D01*
X143695234Y-81877342D01*
X143663211Y-81675160D01*
X143653395Y-81644951D01*
X143599952Y-81480470D01*
X143554507Y-81391280D01*
X143507021Y-81298084D01*
X143499290Y-81287443D01*
X143386705Y-81132480D01*
X143241947Y-80987722D01*
X143076347Y-80867409D01*
X143076346Y-80867408D01*
X143076344Y-80867407D01*
X143019387Y-80838385D01*
X142893957Y-80774475D01*
X142699268Y-80711216D01*
X142524729Y-80683572D01*
X142497086Y-80679194D01*
X142292382Y-80679194D01*
X142268063Y-80683045D01*
X142090199Y-80711216D01*
X141895510Y-80774475D01*
X141713120Y-80867409D01*
X141547520Y-80987722D01*
X141402762Y-81132480D01*
X141282449Y-81298080D01*
X141189515Y-81480470D01*
X141126256Y-81675159D01*
X141094234Y-81877342D01*
X141094234Y-82082045D01*
X141126256Y-82284228D01*
X141189515Y-82478917D01*
X141282449Y-82661307D01*
X141402762Y-82826907D01*
X141547520Y-82971665D01*
X141645898Y-83043139D01*
X141713124Y-83091981D01*
X141809553Y-83141114D01*
X141895510Y-83184912D01*
X141895512Y-83184912D01*
X141895515Y-83184914D01*
X141988350Y-83215078D01*
X142090199Y-83248171D01*
X142147730Y-83257283D01*
X142292382Y-83280194D01*
X142292383Y-83280194D01*
X142497085Y-83280194D01*
X142497086Y-83280194D01*
X142699268Y-83248171D01*
X142713576Y-83243521D01*
X142783416Y-83241525D01*
X142839576Y-83273771D01*
X143613181Y-84047376D01*
X143646666Y-84108699D01*
X143649500Y-84135057D01*
X143649500Y-84663330D01*
X143649499Y-84663348D01*
X143649499Y-84829054D01*
X143649498Y-84829054D01*
X143690422Y-84981782D01*
X143690424Y-84981787D01*
X143693598Y-84987284D01*
X143693599Y-84987286D01*
X143769477Y-85118712D01*
X143769481Y-85118717D01*
X143888349Y-85237585D01*
X143888355Y-85237590D01*
X146573181Y-87922416D01*
X146606666Y-87983739D01*
X146609500Y-88010097D01*
X146609500Y-97785500D01*
X146589815Y-97852539D01*
X146537011Y-97898294D01*
X146485500Y-97909500D01*
X146209630Y-97909500D01*
X146209623Y-97909501D01*
X146150016Y-97915908D01*
X146015171Y-97966202D01*
X146015164Y-97966206D01*
X145899955Y-98052452D01*
X145899952Y-98052455D01*
X145813706Y-98167664D01*
X145813702Y-98167671D01*
X145763408Y-98302517D01*
X145757001Y-98362116D01*
X145757000Y-98362135D01*
X145757000Y-100457870D01*
X145757001Y-100457876D01*
X145763408Y-100517483D01*
X145813702Y-100652328D01*
X145813706Y-100652335D01*
X145899952Y-100767544D01*
X145899955Y-100767547D01*
X146015164Y-100853793D01*
X146015171Y-100853797D01*
X146150017Y-100904091D01*
X146150016Y-100904091D01*
X146156944Y-100904835D01*
X146209627Y-100910500D01*
X147809902Y-100910499D01*
X147839342Y-100919143D01*
X147869329Y-100925667D01*
X147874344Y-100929421D01*
X147876941Y-100930184D01*
X147897583Y-100946818D01*
X148065139Y-101114374D01*
X148065149Y-101114385D01*
X148069479Y-101118715D01*
X148069480Y-101118716D01*
X148181284Y-101230520D01*
X148213484Y-101249110D01*
X148268095Y-101280639D01*
X148268097Y-101280641D01*
X148306151Y-101302611D01*
X148318215Y-101309577D01*
X148470943Y-101350500D01*
X152408777Y-101350500D01*
X152475816Y-101370185D01*
X152521571Y-101422989D01*
X152531515Y-101492147D01*
X152502490Y-101555703D01*
X152443712Y-101593477D01*
X152428175Y-101596973D01*
X152314422Y-101614989D01*
X152119808Y-101678224D01*
X151937487Y-101771122D01*
X151911150Y-101790256D01*
X152580106Y-102482980D01*
X152566179Y-102482980D01*
X152464446Y-102510239D01*
X152373234Y-102562900D01*
X152298760Y-102637374D01*
X152246099Y-102728586D01*
X152219188Y-102829017D01*
X151552638Y-102138786D01*
X151506981Y-102201629D01*
X151414084Y-102383948D01*
X151350849Y-102578562D01*
X151318840Y-102780662D01*
X151318840Y-102985297D01*
X151350849Y-103187397D01*
X151414084Y-103382011D01*
X151506981Y-103564330D01*
X151506987Y-103564339D01*
X151526116Y-103590668D01*
X151526116Y-103590669D01*
X152218840Y-102921713D01*
X152218840Y-102935641D01*
X152246099Y-103037374D01*
X152298760Y-103128586D01*
X152373234Y-103203060D01*
X152464446Y-103255721D01*
X152564877Y-103282631D01*
X151874645Y-103949180D01*
X151937490Y-103994839D01*
X152119808Y-104087735D01*
X152314422Y-104150970D01*
X152516523Y-104182980D01*
X152721157Y-104182980D01*
X152923257Y-104150970D01*
X153117871Y-104087735D01*
X153300185Y-103994841D01*
X153326528Y-103975701D01*
X152657575Y-103282980D01*
X152671501Y-103282980D01*
X152773234Y-103255721D01*
X152864446Y-103203060D01*
X152938920Y-103128586D01*
X152991581Y-103037374D01*
X153018491Y-102936942D01*
X153634698Y-103575044D01*
X153667108Y-103636943D01*
X153669098Y-103657076D01*
X153669099Y-103657076D01*
X153669146Y-103657071D01*
X153669146Y-103657073D01*
X153669324Y-103657064D01*
X153669501Y-103660377D01*
X153675908Y-103719983D01*
X153726202Y-103854828D01*
X153726206Y-103854835D01*
X153812452Y-103970044D01*
X153812455Y-103970047D01*
X153927664Y-104056293D01*
X153927669Y-104056296D01*
X153955539Y-104066690D01*
X154011473Y-104108561D01*
X154035891Y-104174024D01*
X154021040Y-104242298D01*
X154012525Y-104255759D01*
X153879783Y-104438461D01*
X153775950Y-104642244D01*
X153705278Y-104859750D01*
X153705278Y-104859753D01*
X153672155Y-105068886D01*
X153669500Y-105085646D01*
X153669500Y-105314354D01*
X153672156Y-105331120D01*
X153705278Y-105540246D01*
X153705278Y-105540249D01*
X153775950Y-105757754D01*
X153775951Y-105757757D01*
X153775952Y-105757758D01*
X153879783Y-105961538D01*
X154014214Y-106146566D01*
X154175934Y-106308286D01*
X154260864Y-106369991D01*
X154303529Y-106425321D01*
X154309508Y-106494935D01*
X154276902Y-106556730D01*
X154260864Y-106570627D01*
X154176257Y-106632097D01*
X154014597Y-106793757D01*
X153880211Y-106978723D01*
X153776417Y-107182429D01*
X153705765Y-107399871D01*
X153691491Y-107490000D01*
X154679252Y-107490000D01*
X154657482Y-107527708D01*
X154620000Y-107667591D01*
X154620000Y-107812409D01*
X154657482Y-107952292D01*
X154679252Y-107990000D01*
X153691491Y-107990000D01*
X153705765Y-108080128D01*
X153776417Y-108297570D01*
X153880211Y-108501276D01*
X154014597Y-108686242D01*
X154176257Y-108847902D01*
X154361223Y-108982288D01*
X154564929Y-109086082D01*
X154782371Y-109156734D01*
X154920000Y-109178532D01*
X154920000Y-108230747D01*
X154957708Y-108252518D01*
X155097591Y-108290000D01*
X155242409Y-108290000D01*
X155382292Y-108252518D01*
X155420000Y-108230747D01*
X155420000Y-109178531D01*
X155557628Y-109156734D01*
X155775070Y-109086082D01*
X155978776Y-108982288D01*
X156163742Y-108847902D01*
X156325402Y-108686242D01*
X156459788Y-108501276D01*
X156563582Y-108297570D01*
X156634234Y-108080128D01*
X156648509Y-107990000D01*
X155660748Y-107990000D01*
X155682518Y-107952292D01*
X155720000Y-107812409D01*
X155720000Y-107667591D01*
X155682518Y-107527708D01*
X155660748Y-107490000D01*
X156648509Y-107490000D01*
X156636189Y-107412214D01*
X156634234Y-107399871D01*
X156563582Y-107182429D01*
X156459788Y-106978723D01*
X156325402Y-106793757D01*
X156163742Y-106632097D01*
X156079135Y-106570626D01*
X156036470Y-106515296D01*
X156030491Y-106445682D01*
X156063097Y-106383887D01*
X156079125Y-106369999D01*
X156164066Y-106308286D01*
X156325786Y-106146566D01*
X156460217Y-105961538D01*
X156564048Y-105757758D01*
X156564048Y-105757757D01*
X156564050Y-105757754D01*
X156634721Y-105540249D01*
X156634721Y-105540248D01*
X156634722Y-105540245D01*
X156670500Y-105314354D01*
X156670500Y-105085646D01*
X156667843Y-105068872D01*
X169829500Y-105068872D01*
X169829500Y-105331127D01*
X169852791Y-105508028D01*
X169863730Y-105591116D01*
X169924627Y-105818386D01*
X169931602Y-105844418D01*
X169931605Y-105844428D01*
X170031953Y-106086690D01*
X170031958Y-106086700D01*
X170163075Y-106313803D01*
X170322718Y-106521851D01*
X170322726Y-106521860D01*
X170508140Y-106707274D01*
X170508148Y-106707281D01*
X170716196Y-106866924D01*
X170943299Y-106998041D01*
X170943309Y-106998046D01*
X171146519Y-107082218D01*
X171185581Y-107098398D01*
X171438884Y-107166270D01*
X171698880Y-107200500D01*
X171698887Y-107200500D01*
X171961113Y-107200500D01*
X171961120Y-107200500D01*
X172221116Y-107166270D01*
X172474419Y-107098398D01*
X172709626Y-107000972D01*
X172716690Y-106998046D01*
X172716691Y-106998045D01*
X172716697Y-106998043D01*
X172943803Y-106866924D01*
X173151851Y-106707282D01*
X173151855Y-106707277D01*
X173151860Y-106707274D01*
X173337274Y-106521860D01*
X173337277Y-106521855D01*
X173337282Y-106521851D01*
X173496924Y-106313803D01*
X173628043Y-106086697D01*
X173728398Y-105844419D01*
X173796270Y-105591116D01*
X173830500Y-105331120D01*
X173830500Y-105068880D01*
X173796270Y-104808884D01*
X173728398Y-104555581D01*
X173679886Y-104438462D01*
X173628046Y-104313309D01*
X173628041Y-104313299D01*
X173496924Y-104086196D01*
X173337281Y-103878148D01*
X173337274Y-103878140D01*
X173151860Y-103692726D01*
X173151851Y-103692718D01*
X172943803Y-103533075D01*
X172716700Y-103401958D01*
X172716690Y-103401953D01*
X172474428Y-103301605D01*
X172474421Y-103301603D01*
X172474419Y-103301602D01*
X172221116Y-103233730D01*
X172163339Y-103226123D01*
X171961127Y-103199500D01*
X171961120Y-103199500D01*
X171698880Y-103199500D01*
X171698872Y-103199500D01*
X171467772Y-103229926D01*
X171438884Y-103233730D01*
X171255080Y-103282980D01*
X171185581Y-103301602D01*
X171185571Y-103301605D01*
X170943309Y-103401953D01*
X170943299Y-103401958D01*
X170716196Y-103533075D01*
X170508148Y-103692718D01*
X170322718Y-103878148D01*
X170163075Y-104086196D01*
X170031958Y-104313299D01*
X170031953Y-104313309D01*
X169931605Y-104555571D01*
X169931602Y-104555581D01*
X169863730Y-104808885D01*
X169829500Y-105068872D01*
X156667843Y-105068872D01*
X156634722Y-104859755D01*
X156634721Y-104859751D01*
X156634721Y-104859750D01*
X156564049Y-104642244D01*
X156460216Y-104438461D01*
X156327472Y-104255755D01*
X156303994Y-104189953D01*
X156319819Y-104121899D01*
X156369925Y-104073204D01*
X156384455Y-104066692D01*
X156412331Y-104056296D01*
X156527546Y-103970046D01*
X156613796Y-103854831D01*
X156664091Y-103719983D01*
X156670500Y-103660373D01*
X156670499Y-101659628D01*
X156664091Y-101600017D01*
X156647563Y-101555703D01*
X156633439Y-101517833D01*
X156628455Y-101448141D01*
X156661941Y-101386818D01*
X156723264Y-101353334D01*
X156749621Y-101350500D01*
X175770997Y-101350500D01*
X175771013Y-101350501D01*
X175778609Y-101350501D01*
X175936720Y-101350501D01*
X175936723Y-101350501D01*
X176089451Y-101309577D01*
X176139570Y-101280639D01*
X176226382Y-101230520D01*
X176338186Y-101118716D01*
X176338186Y-101118714D01*
X176348394Y-101108507D01*
X176348396Y-101108504D01*
X176514573Y-100942326D01*
X176575894Y-100908843D01*
X176645586Y-100913827D01*
X176675137Y-100929691D01*
X176769113Y-100997967D01*
X176786843Y-101010849D01*
X176883529Y-101060113D01*
X176969229Y-101103780D01*
X176969231Y-101103780D01*
X176969234Y-101103782D01*
X177073590Y-101137689D01*
X177163918Y-101167039D01*
X177265010Y-101183050D01*
X177366101Y-101199062D01*
X177366102Y-101199062D01*
X177570804Y-101199062D01*
X177570805Y-101199062D01*
X177772987Y-101167039D01*
X177967672Y-101103782D01*
X178150063Y-101010849D01*
X178261090Y-100930184D01*
X178315666Y-100890533D01*
X178315668Y-100890530D01*
X178315672Y-100890528D01*
X178460419Y-100745781D01*
X178460421Y-100745777D01*
X178460424Y-100745775D01*
X178528316Y-100652328D01*
X178580740Y-100580172D01*
X178673673Y-100397781D01*
X178736930Y-100203096D01*
X178768953Y-100000914D01*
X178768953Y-99796210D01*
X178765450Y-99774095D01*
X178736930Y-99594027D01*
X178700100Y-99480678D01*
X178673673Y-99399343D01*
X178673671Y-99399339D01*
X178673671Y-99399338D01*
X178639956Y-99333169D01*
X178580740Y-99216952D01*
X178573009Y-99206311D01*
X178460424Y-99051348D01*
X178315666Y-98906590D01*
X178150066Y-98786277D01*
X178150065Y-98786276D01*
X178150063Y-98786275D01*
X178070228Y-98745597D01*
X177967676Y-98693343D01*
X177772987Y-98630084D01*
X177580313Y-98599568D01*
X177570805Y-98598062D01*
X177366101Y-98598062D01*
X177356593Y-98599568D01*
X177163918Y-98630084D01*
X176969229Y-98693343D01*
X176786839Y-98786277D01*
X176621239Y-98906590D01*
X176476481Y-99051348D01*
X176356168Y-99216948D01*
X176263234Y-99399339D01*
X176226296Y-99513021D01*
X176196046Y-99562383D01*
X175645250Y-100113181D01*
X175583927Y-100146666D01*
X175557569Y-100149500D01*
X151258112Y-100149500D01*
X151191073Y-100129815D01*
X151145318Y-100077011D01*
X151135374Y-100007853D01*
X151140181Y-99987181D01*
X151140566Y-99985995D01*
X151140568Y-99985992D01*
X151213553Y-99761368D01*
X151225500Y-99685937D01*
X151250500Y-99528095D01*
X151250882Y-99523242D01*
X151252413Y-99523362D01*
X151270185Y-99462841D01*
X151286819Y-99442199D01*
X151983199Y-98745819D01*
X152044522Y-98712334D01*
X152070880Y-98709500D01*
X164199147Y-98709500D01*
X164432418Y-98672553D01*
X164475102Y-98658684D01*
X164657042Y-98599568D01*
X164867484Y-98492343D01*
X165058560Y-98353517D01*
X167372309Y-96039768D01*
X175577539Y-96039768D01*
X175577539Y-96236613D01*
X175608329Y-96431017D01*
X175669156Y-96618220D01*
X175758515Y-96793596D01*
X175874211Y-96952837D01*
X176013393Y-97092019D01*
X176172634Y-97207715D01*
X176255494Y-97249934D01*
X176348009Y-97297073D01*
X176348011Y-97297073D01*
X176348014Y-97297075D01*
X176448356Y-97329678D01*
X176535212Y-97357900D01*
X176729617Y-97388691D01*
X176729622Y-97388691D01*
X176926461Y-97388691D01*
X177120865Y-97357900D01*
X177308064Y-97297075D01*
X177483444Y-97207715D01*
X177642685Y-97092019D01*
X177781867Y-96952837D01*
X177897563Y-96793596D01*
X177986923Y-96618216D01*
X178047748Y-96431017D01*
X178078539Y-96236613D01*
X178078539Y-96039768D01*
X178047748Y-95845364D01*
X178003533Y-95709287D01*
X177986923Y-95658166D01*
X177986921Y-95658163D01*
X177986921Y-95658161D01*
X177897562Y-95482785D01*
X177885744Y-95466519D01*
X177781867Y-95323545D01*
X177642685Y-95184363D01*
X177483444Y-95068667D01*
X177308068Y-94979308D01*
X177120865Y-94918481D01*
X176926461Y-94887691D01*
X176926456Y-94887691D01*
X176729622Y-94887691D01*
X176729617Y-94887691D01*
X176535212Y-94918481D01*
X176348009Y-94979308D01*
X176172633Y-95068667D01*
X176097423Y-95123311D01*
X176013393Y-95184363D01*
X176013391Y-95184365D01*
X176013390Y-95184365D01*
X175874213Y-95323542D01*
X175874213Y-95323543D01*
X175874211Y-95323545D01*
X175824524Y-95391932D01*
X175758515Y-95482785D01*
X175669156Y-95658161D01*
X175608329Y-95845364D01*
X175577539Y-96039768D01*
X167372309Y-96039768D01*
X186601301Y-76810776D01*
X186662624Y-76777291D01*
X186688982Y-76774457D01*
X188129850Y-76774457D01*
X188241317Y-76775442D01*
X188247913Y-76774457D01*
X188254579Y-76774457D01*
X188364679Y-76757018D01*
X188474910Y-76740557D01*
X188481266Y-76738553D01*
X188487855Y-76737510D01*
X188593863Y-76703065D01*
X188700171Y-76669560D01*
X188706138Y-76666584D01*
X188708713Y-76665747D01*
X188712479Y-76664525D01*
X188712481Y-76664523D01*
X188712484Y-76664523D01*
X188771454Y-76634475D01*
X188811429Y-76614105D01*
X188812053Y-76613791D01*
X188911551Y-76564198D01*
X188916979Y-76560326D01*
X188922920Y-76557300D01*
X189013079Y-76491794D01*
X190700675Y-75288320D01*
X190710043Y-75282638D01*
X190709956Y-75282495D01*
X190714105Y-75279951D01*
X190714115Y-75279947D01*
X190804285Y-75214434D01*
X190895042Y-75149713D01*
X190899799Y-75145038D01*
X190905192Y-75141121D01*
X190983959Y-75062353D01*
X191063518Y-74984189D01*
X191067488Y-74978824D01*
X191072199Y-74974114D01*
X191137484Y-74884255D01*
X191137903Y-74883683D01*
X191167767Y-74843334D01*
X191223472Y-74801160D01*
X191293136Y-74795797D01*
X191306750Y-74800019D01*
X191306805Y-74799841D01*
X191312621Y-74801604D01*
X191312632Y-74801609D01*
X191467282Y-74832371D01*
X191467285Y-74832372D01*
X191467287Y-74832372D01*
X191624973Y-74832372D01*
X191624974Y-74832371D01*
X191779626Y-74801609D01*
X191925308Y-74741266D01*
X192056418Y-74653661D01*
X192167918Y-74542161D01*
X192255523Y-74411051D01*
X192315866Y-74265369D01*
X192346629Y-74110714D01*
X192346629Y-74034711D01*
X192366314Y-73967672D01*
X192382944Y-73947034D01*
X192608506Y-73721471D01*
X192608511Y-73721468D01*
X192618714Y-73711264D01*
X192618716Y-73711264D01*
X192730520Y-73599460D01*
X192792249Y-73492541D01*
X192809577Y-73462529D01*
X192850500Y-73309801D01*
X192850500Y-73151687D01*
X192850500Y-70184468D01*
X192870185Y-70117429D01*
X192886814Y-70096792D01*
X196717646Y-66265959D01*
X196733225Y-66252759D01*
X196738108Y-66249269D01*
X196757820Y-66237889D01*
X196767299Y-66228408D01*
X196775635Y-66222452D01*
X196776886Y-66222016D01*
X196780131Y-66219386D01*
X196782773Y-66217669D01*
X196822808Y-66173143D01*
X196827296Y-66168411D01*
X197409823Y-65585887D01*
X197488880Y-65448955D01*
X197529804Y-65296228D01*
X197529804Y-65138113D01*
X197529804Y-65130518D01*
X197529803Y-65130500D01*
X197529803Y-65017124D01*
X197548887Y-64951028D01*
X199460332Y-61916924D01*
X200096667Y-60906846D01*
X203992073Y-60906846D01*
X204004150Y-61050115D01*
X204004151Y-61050116D01*
X204056101Y-61184183D01*
X204143717Y-61298177D01*
X204190824Y-61335161D01*
X204190830Y-61335166D01*
X204697812Y-61651963D01*
X205055507Y-61079531D01*
X204165056Y-60523115D01*
X204165055Y-60523116D01*
X204046985Y-60712071D01*
X204046980Y-60712080D01*
X204020848Y-60765981D01*
X203992073Y-60906846D01*
X200096667Y-60906846D01*
X200783159Y-59817152D01*
X200786244Y-59812494D01*
X200795619Y-59799007D01*
X200850046Y-59755195D01*
X200897437Y-59745782D01*
X201610785Y-59745782D01*
X201676494Y-59764623D01*
X202660426Y-60379452D01*
X202714375Y-60405607D01*
X202855385Y-60434413D01*
X202998798Y-60422324D01*
X203132997Y-60370321D01*
X203247108Y-60282616D01*
X203284132Y-60235460D01*
X203785300Y-59433422D01*
X203811454Y-59379474D01*
X203840260Y-59238464D01*
X203828171Y-59095050D01*
X203828169Y-59095045D01*
X203826654Y-59088481D01*
X203830749Y-59018731D01*
X203871904Y-58962268D01*
X203919584Y-58939757D01*
X203926152Y-58938239D01*
X203926162Y-58938239D01*
X204060361Y-58886236D01*
X204174472Y-58798531D01*
X204211496Y-58751375D01*
X204235762Y-58712540D01*
X204287980Y-58666119D01*
X204340920Y-58654250D01*
X205108569Y-58654250D01*
X205175608Y-58673935D01*
G37*
%TD.AperFunction*%
%TD*%
M02*
